<svg xmlns="http://www.w3.org/2000/svg" viewBox="0 0 1536 1024" role="img" width="1536" height="1024">
  <title>2008 Chinese Milk Scandal – Retro Pixel Art Banner</title>
  <defs>
    <radialGradient id="crt" cx="50%" cy="50%" r="70%">
      <stop offset="0%" stop-color="#1a0a2e" />
      <stop offset="100%" stop-color="#050008" />
    </radialGradient>
    <radialGradient id="glowRed" cx="50%" cy="50%" r="50%">
      <stop offset="0%" stop-color="#ff2222" stop-opacity="0.3" />
      <stop offset="100%" stop-color="#ff2222" stop-opacity="0" />
    </radialGradient>
    <radialGradient id="glowWhite" cx="50%" cy="50%" r="50%">
      <stop offset="0%" stop-color="#ffffff" stop-opacity="0.15" />
      <stop offset="100%" stop-color="#ffffff" stop-opacity="0" />
    </radialGradient>
    
    <pattern id="scanlines" x="0" y="0" width="2" height="4" patternUnits="userSpaceOnUse">
      <rect x="0" y="0" width="2" height="2" fill="black" fill-opacity="0.18" />
    </pattern>
  </defs>

  
  <rect width="1536" height="1024" fill="url(#crt)" />

  
  
  <g stroke="#1a0a4a" stroke-width="2" fill="none">
    <line x1="0" y1="650" x2="1536" y2="650" />
    <line x1="0" y1="700" x2="1536" y2="700" />
    <line x1="0" y1="750" x2="1536" y2="750" />
    <line x1="0" y1="800" x2="1536" y2="800" />
    <line x1="0" y1="850" x2="1536" y2="850" />
    <line x1="0" y1="900" x2="1536" y2="900" />
    <line x1="0" y1="950" x2="1536" y2="950" />
    <line x1="0" y1="1000" x2="1536" y2="1000" />
  </g>
  
  <g stroke="#1a0a4a" stroke-width="1.5" fill="none">
    <line x1="768" y1="620" x2="0" y2="1024" />
    <line x1="768" y1="620" x2="200" y2="1024" />
    <line x1="768" y1="620" x2="400" y2="1024" />
    <line x1="768" y1="620" x2="600" y2="1024" />
    <line x1="768" y1="620" x2="768" y2="1024" />
    <line x1="768" y1="620" x2="950" y2="1024" />
    <line x1="768" y1="620" x2="1136" y2="1024" />
    <line x1="768" y1="620" x2="1336" y2="1024" />
    <line x1="768" y1="620" x2="1536" y2="1024" />
  </g>

  
  <ellipse cx="768" cy="300" rx="500" ry="350" fill="url(#glowRed)" />

  
  
  <rect x="140" y="320" width="160" height="240" fill="#e8f4f8" rx="0" />
  
  <rect x="176" y="260" width="88" height="64" fill="#e8f4f8" />
  
  <rect x="168" y="236" width="104" height="28" fill="#cc3333" />
  <rect x="176" y="220" width="88" height="20" fill="#cc3333" />
  
  <rect x="156" y="332" width="16" height="64" fill="#ffffff" fill-opacity="0.6" />
  <rect x="156" y="332" width="16" height="8" fill="#ffffff" />
  
  
  <rect x="176" y="360" width="88" height="72" fill="#1a0a2e" />
  <rect x="184" y="352" width="72" height="80" fill="#1a0a2e" />
  
  <rect x="192" y="372" width="20" height="20" fill="#ff2222" />
  <rect x="228" y="372" width="20" height="20" fill="#ff2222" />
  
  <rect x="196" y="376" width="6" height="6" fill="#ff6666" />
  <rect x="232" y="376" width="6" height="6" fill="#ff6666" />
  
  <rect x="212" y="396" width="16" height="12" fill="#1a0a2e" />
  <rect x="216" y="392" width="8" height="16" fill="#1a0a2e" />
  
  <rect x="188" y="416" width="12" height="16" fill="#ffffff" />
  <rect x="204" y="416" width="12" height="16" fill="#ffffff" />
  <rect x="220" y="416" width="12" height="16" fill="#ffffff" />
  <rect x="236" y="416" width="12" height="16" fill="#ffffff" />
  
  <rect x="200" y="416" width="4" height="16" fill="#1a0a2e" />
  <rect x="216" y="416" width="4" height="16" fill="#1a0a2e" />
  <rect x="232" y="416" width="4" height="16" fill="#1a0a2e" />
  
  <rect x="152" y="480" width="136" height="40" fill="#ffcc00" />
  <rect x="156" y="484" width="128" height="32" fill="#ff4400" />
  
  <rect x="164" y="488" width="8" height="24" fill="#ffcc00" />
  <rect x="168" y="484" width="24" height="8" fill="#ffcc00" />
  <rect x="184" y="496" width="8" height="16" fill="#ffcc00" />
  <rect x="200" y="488" width="8" height="24" fill="#ffcc00" />
  <rect x="200" y="488" width="24" height="8" fill="#ffcc00" />
  <rect x="200" y="504" width="24" height="8" fill="#ffcc00" />
  <rect x="232" y="488" width="8" height="24" fill="#ffcc00" />
  <rect x="232" y="488" width="24" height="8" fill="#ffcc00" />
  <rect x="248" y="496" width="8" height="16" fill="#ffcc00" />
  
  <rect x="140" y="556" width="160" height="8" fill="#b0ccd6" />
  
  <rect x="148" y="564" width="160" height="12" fill="#0d0520" fill-opacity="0.7" />

  
  
  <rect x="1236" y="300" width="160" height="264" fill="#cc2244" />
  
  <rect x="1228" y="284" width="176" height="20" fill="#aaaaaa" />
  <rect x="1236" y="268" width="160" height="20" fill="#888888" />
  
  <rect x="1236" y="340" width="160" height="140" fill="#f0f0f0" />
  
  
  <rect x="1252" y="356" width="8" height="32" fill="#cc2244" />
  <rect x="1252" y="356" width="24" height="8" fill="#cc2244" />
  <rect x="1252" y="368" width="20" height="8" fill="#cc2244" />
  
  <rect x="1284" y="356" width="8" height="32" fill="#cc2244" />
  <rect x="1308" y="356" width="8" height="32" fill="#cc2244" />
  <rect x="1284" y="356" width="32" height="8" fill="#cc2244" />
  <rect x="1284" y="380" width="32" height="8" fill="#cc2244" />
  
  <rect x="1268" y="392" width="64" height="52" fill="#1a1a1a" />
  <rect x="1276" y="384" width="48" height="60" fill="#1a1a1a" />
  
  <rect x="1280" y="400" width="14" height="14" fill="#ff2222" />
  <rect x="1306" y="400" width="14" height="14" fill="#ff2222" />
  
  <rect x="1272" y="432" width="10" height="12" fill="#ffffff" />
  <rect x="1284" y="432" width="10" height="12" fill="#ffffff" />
  <rect x="1296" y="432" width="10" height="12" fill="#ffffff" />
  <rect x="1308" y="432" width="10" height="12" fill="#ffffff" />
  
  <rect x="1228" y="560" width="176" height="16" fill="#888888" />
  
  <rect x="1244" y="576" width="160" height="12" fill="#0d0520" fill-opacity="0.7" />

  
  
  
  <rect x="680" y="480" width="176" height="16" fill="#00ff88" fill-opacity="0.7" />
  <rect x="648" y="496" width="240" height="16" fill="#00ff88" fill-opacity="0.7" />
  <rect x="632" y="512" width="272" height="16" fill="#00ff88" fill-opacity="0.7" />
  <rect x="648" y="528" width="240" height="16" fill="#00ff88" fill-opacity="0.7" />
  <rect x="680" y="544" width="176" height="16" fill="#00ff88" fill-opacity="0.7" />
  
  <rect x="736" y="496" width="64" height="64" fill="#00ff88" fill-opacity="0.4" />
  
  <rect x="704" y="508" width="8" height="24" fill="#00ffcc" />
  <rect x="712" y="508" width="8" height="8" fill="#00ffcc" />
  <rect x="712" y="520" width="8" height="8" fill="#00ffcc" />
  <rect x="712" y="532" width="8" height="8" fill="#00ffcc" />

  
  
  <rect x="580" y="518" width="64" height="8" fill="#ff4400" fill-opacity="0.6" />
  <rect x="896" y="518" width="64" height="8" fill="#ff4400" fill-opacity="0.6" />
  <rect x="756" y="420" width="8" height="64" fill="#ff4400" fill-opacity="0.6" />
  <rect x="756" y="564" width="8" height="64" fill="#ff4400" fill-opacity="0.6" />

  
  
  <rect x="380" y="492" width="24" height="24" fill="#ff4400" transform="rotate(45 392 504)" />
  <rect x="406" y="492" width="24" height="24" fill="#ffcc00" transform="rotate(45 418 504)" />
  <rect x="380" y="516" width="24" height="24" fill="#ffcc00" transform="rotate(45 392 528)" />
  <rect x="406" y="516" width="24" height="24" fill="#ff4400" transform="rotate(45 418 528)" />

  
  <rect x="1126" y="492" width="24" height="24" fill="#ffcc00" transform="rotate(45 1138 504)" />
  <rect x="1152" y="492" width="24" height="24" fill="#ff4400" transform="rotate(45 1164 504)" />
  <rect x="1126" y="516" width="24" height="24" fill="#ff4400" transform="rotate(45 1138 528)" />
  <rect x="1152" y="516" width="24" height="24" fill="#ffcc00" transform="rotate(45 1164 528)" />

  
  
  <rect x="700" y="600" width="136" height="20" fill="#e8f4f8" />
  <rect x="692" y="620" width="152" height="168" fill="#e8f4f8" />
  <rect x="700" y="784" width="136" height="20" fill="#e8f4f8" />
  
  <rect x="724" y="580" width="88" height="24" fill="#ffcc88" />
  <rect x="740" y="564" width="56" height="20" fill="#ffcc88" />
  <rect x="752" y="552" width="32" height="16" fill="#ffcc88" />
  
  <rect x="708" y="660" width="120" height="120" fill="#ff3333" fill-opacity="0.6" />
  
  <rect x="700" y="628" width="20" height="80" fill="#ffffff" fill-opacity="0.4" />
  
  <rect x="820" y="640" width="16" height="4" fill="#888888" />
  <rect x="820" y="668" width="16" height="4" fill="#888888" />
  <rect x="820" y="696" width="16" height="4" fill="#888888" />
  <rect x="820" y="724" width="16" height="4" fill="#888888" />
  <rect x="820" y="752" width="16" height="4" fill="#888888" />

  
  
  <rect x="716" y="672" width="16" height="16" fill="#ff0000" />
  <rect x="732" y="688" width="16" height="16" fill="#ff0000" />
  <rect x="748" y="704" width="16" height="16" fill="#ff0000" />
  <rect x="764" y="688" width="16" height="16" fill="#ff0000" />
  <rect x="780" y="672" width="16" height="16" fill="#ff0000" />
  <rect x="764" y="672" width="16" height="16" fill="#ff0000" />
  <rect x="748" y="688" width="16" height="16" fill="#ff0000" />
  <rect x="732" y="704" width="16" height="16" fill="#ff0000" />
  <rect x="716" y="704" width="16" height="16" fill="#ff0000" />
  
  <rect x="716" y="668" width="16" height="16" fill="#ff0000" />
  <rect x="780" y="668" width="16" height="16" fill="#ff0000" />
  <rect x="748" y="700" width="16" height="16" fill="#ff0000" />
  <rect x="716" y="732" width="16" height="16" fill="#ff0000" />
  <rect x="780" y="732" width="16" height="16" fill="#ff0000" />

  
  <rect x="80" y="180" width="12" height="12" fill="#ffcc00" />
  <rect x="88" y="172" width="12" height="12" fill="#ffcc00" fill-opacity="0.5" />
  <rect x="500" y="220" width="8" height="8" fill="#ff6666" />
  <rect x="1050" y="190" width="10" height="10" fill="#ffcc00" />
  <rect x="1400" y="250" width="8" height="8" fill="#ff6666" />
  <rect x="300" y="580" width="8" height="8" fill="#00ff88" fill-opacity="0.5" />
  <rect x="1200" y="580" width="8" height="8" fill="#00ff88" fill-opacity="0.5" />

  
  <rect x="84" y="176" width="4" height="20" fill="#ffcc00" fill-opacity="0.8" />
  <rect x="76" y="184" width="20" height="4" fill="#ffcc00" fill-opacity="0.8" />
  <rect x="1044" y="186" width="4" height="20" fill="#ffcc00" fill-opacity="0.8" />
  <rect x="1036" y="194" width="20" height="4" fill="#ffcc00" fill-opacity="0.8" />

  
  
  <text x="772" y="138" font-family="monospace" font-size="72" font-weight="bold" fill="#ff0000" fill-opacity="0.4" text-anchor="middle" letter-spacing="2" style="image-rendering:pixelated">2008 CHINESE MILK</text>
  <text x="772" y="222" font-family="monospace" font-size="72" font-weight="bold" fill="#ff0000" fill-opacity="0.4" text-anchor="middle" letter-spacing="2">SCANDAL</text>
  
  <text x="768" y="134" font-family="monospace" font-size="72" font-weight="bold" fill="#ffffff" text-anchor="middle" letter-spacing="2">2008 CHINESE MILK</text>
  <text x="768" y="218" font-family="monospace" font-size="72" font-weight="bold" fill="#ff3333" text-anchor="middle" letter-spacing="2">SCANDAL</text>

  
  <text x="768" y="280" font-family="monospace" font-size="28" fill="#ffcc00" text-anchor="middle" letter-spacing="4">MELAMINE CONTAMINATION WARNING</text>

  
  <rect x="0" y="950" width="1536" height="74" fill="#1a0a2e" fill-opacity="0.9" />
  <rect x="0" y="950" width="1536" height="8" fill="#ff3333" />
  <rect x="0" y="958" width="1536" height="4" fill="#cc0000" />

  
  <text x="768" y="1002" font-family="monospace" font-size="24" fill="#ffcc00" text-anchor="middle" letter-spacing="6">300,000 INFANTS AFFECTED  ·  22 COMPANIES  ·  SANLU GROUP</text>

  
  
  <rect x="16" y="16" width="48" height="8" fill="#ff3333" />
  <rect x="16" y="16" width="8" height="48" fill="#ff3333" />
  <rect x="20" y="20" width="32" height="4" fill="#ffcc00" />
  <rect x="20" y="20" width="4" height="32" fill="#ffcc00" />
  
  <rect x="1472" y="16" width="48" height="8" fill="#ff3333" />
  <rect x="1512" y="16" width="8" height="48" fill="#ff3333" />
  <rect x="1484" y="20" width="32" height="4" fill="#ffcc00" />
  <rect x="1512" y="20" width="4" height="32" fill="#ffcc00" />
  
  <rect x="16" y="944" width="48" height="8" fill="#ff3333" />
  <rect x="16" y="900" width="8" height="48" fill="#ff3333" />
  
  <rect x="1472" y="944" width="48" height="8" fill="#ff3333" />
  <rect x="1512" y="900" width="8" height="48" fill="#ff3333" />

  
  <rect width="1536" height="1024" fill="url(#scanlines)" />

  
  <radialGradient id="vignette" cx="50%" cy="50%" r="70%">
    <stop offset="60%" stop-color="black" stop-opacity="0" />
    <stop offset="100%" stop-color="black" stop-opacity="0.55" />
  </radialGradient>
  <rect width="1536" height="1024" fill="url(#vignette)" />

  
  <rect x="0" y="0" width="1536" height="3" fill="#4488ff" fill-opacity="0.15" />
  <rect x="0" y="1021" width="1536" height="3" fill="#4488ff" fill-opacity="0.15" />
</svg>