<svg xmlns="http://www.w3.org/2000/svg" viewBox="0 0 1536 1024" role="img" width="1536" height="1024">
  <title>Fannie Mae and Freddie Mac Conservatorship – Retro Pixel Art Banner</title>
  <defs>
    <radialGradient id="crt" cx="50%" cy="50%" r="70%">
      <stop offset="0%" stop-color="#0a1a0a" />
      <stop offset="100%" stop-color="#000800" />
    </radialGradient>
    <radialGradient id="glow" cx="50%" cy="50%" r="50%">
      <stop offset="0%" stop-color="#00ff41" stop-opacity="0.08" />
      <stop offset="100%" stop-color="#00ff41" stop-opacity="0" />
    </radialGradient>
    <filter id="bloom" x="-20%" y="-20%" width="140%" height="140%">
      <feGaussianBlur stdDeviation="3" result="blur" />
      <feMerge><feMergeNode in="blur" /><feMergeNode in="SourceGraphic" /></feMerge>
    </filter>
    <filter id="scanlines">
      <feTurbulence type="fractalNoise" baseFrequency="0 0.5" numOctaves="1" result="noise" />
      <feColorMatrix type="saturate" values="0" in="noise" result="gray" />
      <feBlend in="SourceGraphic" in2="gray" mode="multiply" />
    </filter>
    <linearGradient id="redGrad" x1="0%" y1="0%" x2="0%" y2="100%">
      <stop offset="0%" stop-color="#ff3030" />
      <stop offset="100%" stop-color="#aa0000" />
    </linearGradient>
    <linearGradient id="goldGrad" x1="0%" y1="0%" x2="0%" y2="100%">
      <stop offset="0%" stop-color="#ffd700" />
      <stop offset="100%" stop-color="#b8860b" />
    </linearGradient>
    <linearGradient id="blueGov" x1="0%" y1="0%" x2="0%" y2="100%">
      <stop offset="0%" stop-color="#2244aa" />
      <stop offset="100%" stop-color="#112266" />
    </linearGradient>
  </defs>

  
  <rect width="1536" height="1024" fill="url(#crt)" />
  <rect width="1536" height="1024" fill="url(#glow)" />

  
  <rect width="1536" height="1024" fill="none" stroke="#00ff41" stroke-opacity="0.03" />
  
  <g opacity="0.07">
    <rect x="0" y="0" width="1536" height="2" fill="#00ff41" />
    <rect x="0" y="8" width="1536" height="2" fill="#00ff41" />
    <rect x="0" y="16" width="1536" height="2" fill="#00ff41" />
    <rect x="0" y="24" width="1536" height="2" fill="#00ff41" />
    <rect x="0" y="32" width="1536" height="2" fill="#00ff41" />
    <rect x="0" y="40" width="1536" height="2" fill="#00ff41" />
    <rect x="0" y="48" width="1536" height="2" fill="#00ff41" />
    <rect x="0" y="56" width="1536" height="2" fill="#00ff41" />
    <rect x="0" y="64" width="1536" height="2" fill="#00ff41" />
    <rect x="0" y="72" width="1536" height="2" fill="#00ff41" />
    <rect x="0" y="80" width="1536" height="2" fill="#00ff41" />
    <rect x="0" y="88" width="1536" height="2" fill="#00ff41" />
    <rect x="0" y="96" width="1536" height="2" fill="#00ff41" />
    <rect x="0" y="104" width="1536" height="2" fill="#00ff41" />
    <rect x="0" y="112" width="1536" height="2" fill="#00ff41" />
    <rect x="0" y="120" width="1536" height="2" fill="#00ff41" />
    <rect x="0" y="128" width="1536" height="2" fill="#00ff41" />
    <rect x="0" y="136" width="1536" height="2" fill="#00ff41" />
    <rect x="0" y="144" width="1536" height="2" fill="#00ff41" />
    <rect x="0" y="152" width="1536" height="2" fill="#00ff41" />
    <rect x="0" y="160" width="1536" height="2" fill="#00ff41" />
    <rect x="0" y="168" width="1536" height="2" fill="#00ff41" />
    <rect x="0" y="176" width="1536" height="2" fill="#00ff41" />
    <rect x="0" y="184" width="1536" height="2" fill="#00ff41" />
    <rect x="0" y="192" width="1536" height="2" fill="#00ff41" />
    <rect x="0" y="200" width="1536" height="2" fill="#00ff41" />
    <rect x="0" y="208" width="1536" height="2" fill="#00ff41" />
    <rect x="0" y="216" width="1536" height="2" fill="#00ff41" />
    <rect x="0" y="224" width="1536" height="2" fill="#00ff41" />
    <rect x="0" y="232" width="1536" height="2" fill="#00ff41" />
    <rect x="0" y="240" width="1536" height="2" fill="#00ff41" />
    <rect x="0" y="248" width="1536" height="2" fill="#00ff41" />
    <rect x="0" y="256" width="1536" height="2" fill="#00ff41" />
    <rect x="0" y="264" width="1536" height="2" fill="#00ff41" />
    <rect x="0" y="272" width="1536" height="2" fill="#00ff41" />
    <rect x="0" y="280" width="1536" height="2" fill="#00ff41" />
    <rect x="0" y="288" width="1536" height="2" fill="#00ff41" />
    <rect x="0" y="296" width="1536" height="2" fill="#00ff41" />
    <rect x="0" y="304" width="1536" height="2" fill="#00ff41" />
    <rect x="0" y="312" width="1536" height="2" fill="#00ff41" />
    <rect x="0" y="320" width="1536" height="2" fill="#00ff41" />
    <rect x="0" y="328" width="1536" height="2" fill="#00ff41" />
    <rect x="0" y="336" width="1536" height="2" fill="#00ff41" />
    <rect x="0" y="344" width="1536" height="2" fill="#00ff41" />
    <rect x="0" y="352" width="1536" height="2" fill="#00ff41" />
    <rect x="0" y="360" width="1536" height="2" fill="#00ff41" />
    <rect x="0" y="368" width="1536" height="2" fill="#00ff41" />
    <rect x="0" y="376" width="1536" height="2" fill="#00ff41" />
    <rect x="0" y="384" width="1536" height="2" fill="#00ff41" />
    <rect x="0" y="392" width="1536" height="2" fill="#00ff41" />
    <rect x="0" y="400" width="1536" height="2" fill="#00ff41" />
    <rect x="0" y="408" width="1536" height="2" fill="#00ff41" />
    <rect x="0" y="416" width="1536" height="2" fill="#00ff41" />
    <rect x="0" y="424" width="1536" height="2" fill="#00ff41" />
    <rect x="0" y="432" width="1536" height="2" fill="#00ff41" />
    <rect x="0" y="440" width="1536" height="2" fill="#00ff41" />
    <rect x="0" y="448" width="1536" height="2" fill="#00ff41" />
    <rect x="0" y="456" width="1536" height="2" fill="#00ff41" />
    <rect x="0" y="464" width="1536" height="2" fill="#00ff41" />
    <rect x="0" y="472" width="1536" height="2" fill="#00ff41" />
    <rect x="0" y="480" width="1536" height="2" fill="#00ff41" />
    <rect x="0" y="488" width="1536" height="2" fill="#00ff41" />
    <rect x="0" y="496" width="1536" height="2" fill="#00ff41" />
    <rect x="0" y="504" width="1536" height="2" fill="#00ff41" />
    <rect x="0" y="512" width="1536" height="2" fill="#00ff41" />
    <rect x="0" y="520" width="1536" height="2" fill="#00ff41" />
    <rect x="0" y="528" width="1536" height="2" fill="#00ff41" />
    <rect x="0" y="536" width="1536" height="2" fill="#00ff41" />
    <rect x="0" y="544" width="1536" height="2" fill="#00ff41" />
    <rect x="0" y="552" width="1536" height="2" fill="#00ff41" />
    <rect x="0" y="560" width="1536" height="2" fill="#00ff41" />
    <rect x="0" y="568" width="1536" height="2" fill="#00ff41" />
    <rect x="0" y="576" width="1536" height="2" fill="#00ff41" />
    <rect x="0" y="584" width="1536" height="2" fill="#00ff41" />
    <rect x="0" y="592" width="1536" height="2" fill="#00ff41" />
    <rect x="0" y="600" width="1536" height="2" fill="#00ff41" />
    <rect x="0" y="608" width="1536" height="2" fill="#00ff41" />
    <rect x="0" y="616" width="1536" height="2" fill="#00ff41" />
    <rect x="0" y="624" width="1536" height="2" fill="#00ff41" />
    <rect x="0" y="632" width="1536" height="2" fill="#00ff41" />
    <rect x="0" y="640" width="1536" height="2" fill="#00ff41" />
    <rect x="0" y="648" width="1536" height="2" fill="#00ff41" />
    <rect x="0" y="656" width="1536" height="2" fill="#00ff41" />
    <rect x="0" y="664" width="1536" height="2" fill="#00ff41" />
    <rect x="0" y="672" width="1536" height="2" fill="#00ff41" />
    <rect x="0" y="680" width="1536" height="2" fill="#00ff41" />
    <rect x="0" y="688" width="1536" height="2" fill="#00ff41" />
    <rect x="0" y="696" width="1536" height="2" fill="#00ff41" />
    <rect x="0" y="704" width="1536" height="2" fill="#00ff41" />
    <rect x="0" y="712" width="1536" height="2" fill="#00ff41" />
    <rect x="0" y="720" width="1536" height="2" fill="#00ff41" />
    <rect x="0" y="728" width="1536" height="2" fill="#00ff41" />
    <rect x="0" y="736" width="1536" height="2" fill="#00ff41" />
    <rect x="0" y="744" width="1536" height="2" fill="#00ff41" />
    <rect x="0" y="752" width="1536" height="2" fill="#00ff41" />
    <rect x="0" y="760" width="1536" height="2" fill="#00ff41" />
    <rect x="0" y="768" width="1536" height="2" fill="#00ff41" />
    <rect x="0" y="776" width="1536" height="2" fill="#00ff41" />
    <rect x="0" y="784" width="1536" height="2" fill="#00ff41" />
    <rect x="0" y="792" width="1536" height="2" fill="#00ff41" />
    <rect x="0" y="800" width="1536" height="2" fill="#00ff41" />
    <rect x="0" y="808" width="1536" height="2" fill="#00ff41" />
    <rect x="0" y="816" width="1536" height="2" fill="#00ff41" />
    <rect x="0" y="824" width="1536" height="2" fill="#00ff41" />
    <rect x="0" y="832" width="1536" height="2" fill="#00ff41" />
    <rect x="0" y="840" width="1536" height="2" fill="#00ff41" />
    <rect x="0" y="848" width="1536" height="2" fill="#00ff41" />
    <rect x="0" y="856" width="1536" height="2" fill="#00ff41" />
    <rect x="0" y="864" width="1536" height="2" fill="#00ff41" />
    <rect x="0" y="872" width="1536" height="2" fill="#00ff41" />
    <rect x="0" y="880" width="1536" height="2" fill="#00ff41" />
    <rect x="0" y="888" width="1536" height="2" fill="#00ff41" />
    <rect x="0" y="896" width="1536" height="2" fill="#00ff41" />
    <rect x="0" y="904" width="1536" height="2" fill="#00ff41" />
    <rect x="0" y="912" width="1536" height="2" fill="#00ff41" />
    <rect x="0" y="920" width="1536" height="2" fill="#00ff41" />
    <rect x="0" y="928" width="1536" height="2" fill="#00ff41" />
    <rect x="0" y="936" width="1536" height="2" fill="#00ff41" />
    <rect x="0" y="944" width="1536" height="2" fill="#00ff41" />
    <rect x="0" y="952" width="1536" height="2" fill="#00ff41" />
    <rect x="0" y="960" width="1536" height="2" fill="#00ff41" />
    <rect x="0" y="968" width="1536" height="2" fill="#00ff41" />
    <rect x="0" y="976" width="1536" height="2" fill="#00ff41" />
    <rect x="0" y="984" width="1536" height="2" fill="#00ff41" />
    <rect x="0" y="992" width="1536" height="2" fill="#00ff41" />
    <rect x="0" y="1000" width="1536" height="2" fill="#00ff41" />
    <rect x="0" y="1008" width="1536" height="2" fill="#00ff41" />
    <rect x="0" y="1016" width="1536" height="2" fill="#00ff41" />
  </g>

  
  <rect x="0" y="790" width="1536" height="16" fill="#1a3a1a" />
  <rect x="0" y="806" width="1536" height="218" fill="#0d200d" />

  
  <rect x="0" y="790" width="1536" height="8" fill="#2a5a2a" />
  
  <rect x="200" y="794" width="60" height="4" fill="#ffd700" opacity="0.5" />
  <rect x="400" y="794" width="60" height="4" fill="#ffd700" opacity="0.5" />
  <rect x="660" y="794" width="60" height="4" fill="#ffd700" opacity="0.5" />
  <rect x="920" y="794" width="60" height="4" fill="#ffd700" opacity="0.5" />
  <rect x="1180" y="794" width="60" height="4" fill="#ffd700" opacity="0.5" />

  
  
  <rect x="120" y="580" width="360" height="220" fill="#3a7abd" />
  
  <rect x="120" y="580" width="16" height="220" fill="#2a5a9d" />
  <rect x="464" y="580" width="16" height="220" fill="#2a5a9d" />
  
  <rect x="160" y="620" width="72" height="64" fill="#ffd700" />
  <rect x="168" y="628" width="56" height="48" fill="#111" />
  <rect x="168" y="628" width="56" height="4" fill="#333" />
  <rect x="168" y="648" width="56" height="4" fill="#333" />
  <rect x="192" y="628" width="4" height="48" fill="#333" />
  
  <rect x="172" y="632" width="16" height="12" fill="#ffff00" opacity="0.3" />
  <rect x="200" y="632" width="20" height="12" fill="#ffff00" opacity="0.3" />

  <rect x="368" y="620" width="72" height="64" fill="#ffd700" />
  <rect x="376" y="628" width="56" height="48" fill="#111" />
  <rect x="376" y="628" width="56" height="4" fill="#333" />
  <rect x="376" y="648" width="56" height="4" fill="#333" />
  <rect x="400" y="628" width="4" height="48" fill="#333" />
  <rect x="380" y="632" width="16" height="12" fill="#ffff00" opacity="0.3" />
  <rect x="408" y="632" width="20" height="12" fill="#ffff00" opacity="0.3" />

  
  <rect x="264" y="700" width="72" height="100" fill="#8B4513" />
  <rect x="272" y="708" width="56" height="84" fill="#6B3410" />
  <rect x="288" y="740" width="8" height="8" fill="#ffd700" />

  
  <rect x="120" y="564" width="360" height="16" fill="#cc2222" />
  <rect x="136" y="548" width="328" height="16" fill="#cc2222" />
  <rect x="152" y="532" width="296" height="16" fill="#cc2222" />
  <rect x="168" y="516" width="264" height="16" fill="#cc2222" />
  <rect x="184" y="500" width="232" height="16" fill="#cc2222" />
  <rect x="200" y="484" width="200" height="16" fill="#cc2222" />
  <rect x="216" y="468" width="168" height="16" fill="#cc2222" />
  <rect x="232" y="452" width="136" height="16" fill="#cc2222" />
  <rect x="248" y="436" width="104" height="16" fill="#cc2222" />
  <rect x="264" y="420" width="72" height="16" fill="#cc2222" />
  <rect x="280" y="404" width="40" height="16" fill="#cc2222" />
  <rect x="288" y="388" width="24" height="16" fill="#cc2222" />
  
  <rect x="392" y="500" width="32" height="72" fill="#884444" />
  <rect x="384" y="492" width="48" height="16" fill="#664444" />

  
  <rect x="136" y="748" width="328" height="36" fill="#1144aa" />
  <text x="300" y="773" font-family="'Courier New', monospace" font-size="22" font-weight="bold" fill="#ffd700" text-anchor="middle" letter-spacing="2">FANNIE MAE</text>

  
  <rect x="1056" y="580" width="360" height="220" fill="#3a7abd" />
  <rect x="1056" y="580" width="16" height="220" fill="#2a5a9d" />
  <rect x="1400" y="580" width="16" height="220" fill="#2a5a9d" />

  
  <rect x="1096" y="620" width="72" height="64" fill="#ffd700" />
  <rect x="1104" y="628" width="56" height="48" fill="#111" />
  <rect x="1104" y="628" width="56" height="4" fill="#333" />
  <rect x="1104" y="648" width="56" height="4" fill="#333" />
  <rect x="1128" y="628" width="4" height="48" fill="#333" />
  <rect x="1108" y="632" width="16" height="12" fill="#ffff00" opacity="0.3" />
  <rect x="1136" y="632" width="20" height="12" fill="#ffff00" opacity="0.3" />

  <rect x="1304" y="620" width="72" height="64" fill="#ffd700" />
  <rect x="1312" y="628" width="56" height="48" fill="#111" />
  <rect x="1312" y="628" width="56" height="4" fill="#333" />
  <rect x="1312" y="648" width="56" height="4" fill="#333" />
  <rect x="1336" y="628" width="4" height="48" fill="#333" />
  <rect x="1316" y="632" width="16" height="12" fill="#ffff00" opacity="0.3" />
  <rect x="1344" y="632" width="20" height="12" fill="#ffff00" opacity="0.3" />

  
  <rect x="1200" y="700" width="72" height="100" fill="#8B4513" />
  <rect x="1208" y="708" width="56" height="84" fill="#6B3410" />
  <rect x="1224" y="740" width="8" height="8" fill="#ffd700" />

  
  <rect x="1056" y="564" width="360" height="16" fill="#cc2222" />
  <rect x="1072" y="548" width="328" height="16" fill="#cc2222" />
  <rect x="1088" y="532" width="296" height="16" fill="#cc2222" />
  <rect x="1104" y="516" width="264" height="16" fill="#cc2222" />
  <rect x="1120" y="500" width="232" height="16" fill="#cc2222" />
  <rect x="1136" y="484" width="200" height="16" fill="#cc2222" />
  <rect x="1152" y="468" width="168" height="16" fill="#cc2222" />
  <rect x="1168" y="452" width="136" height="16" fill="#cc2222" />
  <rect x="1184" y="436" width="104" height="16" fill="#cc2222" />
  <rect x="1200" y="420" width="72" height="16" fill="#cc2222" />
  <rect x="1216" y="404" width="40" height="16" fill="#cc2222" />
  <rect x="1224" y="388" width="24" height="16" fill="#cc2222" />
  
  <rect x="1112" y="500" width="32" height="72" fill="#884444" />
  <rect x="1104" y="492" width="48" height="16" fill="#664444" />

  
  <rect x="1072" y="748" width="328" height="36" fill="#1144aa" />
  <text x="1236" y="773" font-family="'Courier New', monospace" font-size="22" font-weight="bold" fill="#ffd700" text-anchor="middle" letter-spacing="2">FREDDIE MAC</text>

  
  
  <rect x="568" y="500" width="400" height="298" fill="url(#blueGov)" />
  <rect x="568" y="500" width="16" height="298" fill="#0a1a55" />
  <rect x="952" y="500" width="16" height="298" fill="#0a1a55" />

  
  <rect x="584" y="516" width="24" height="274" fill="#4466cc" />
  <rect x="632" y="516" width="24" height="274" fill="#4466cc" />
  <rect x="680" y="516" width="24" height="274" fill="#4466cc" />
  <rect x="728" y="516" width="24" height="274" fill="#4466cc" />
  <rect x="776" y="516" width="24" height="274" fill="#4466cc" />
  <rect x="824" y="516" width="24" height="274" fill="#4466cc" />
  <rect x="872" y="516" width="24" height="274" fill="#4466cc" />
  <rect x="920" y="516" width="24" height="274" fill="#4466cc" />

  
  <rect x="568" y="484" width="400" height="16" fill="#5577dd" />
  <rect x="584" y="468" width="368" height="16" fill="#5577dd" />
  <rect x="600" y="452" width="336" height="16" fill="#5577dd" />
  <rect x="616" y="436" width="304" height="16" fill="#5577dd" />
  <rect x="632" y="420" width="272" height="16" fill="#5577dd" />
  <rect x="648" y="404" width="240" height="16" fill="#5577dd" />
  <rect x="664" y="388" width="208" height="16" fill="#5577dd" />
  <rect x="680" y="372" width="176" height="16" fill="#5577dd" />
  <rect x="696" y="356" width="144" height="16" fill="#5577dd" />
  <rect x="712" y="340" width="112" height="16" fill="#5577dd" />
  <rect x="728" y="324" width="80" height="16" fill="#5577dd" />
  <rect x="744" y="308" width="48" height="16" fill="#5577dd" />

  
  
  <rect x="752" y="348" width="32" height="24" fill="#ffd700" />
  
  <rect x="712" y="344" width="40" height="8" fill="#ffd700" />
  <rect x="700" y="340" width="40" height="8" fill="#ffd700" />
  <rect x="696" y="348" width="16" height="8" fill="#ffd700" />
  
  <rect x="784" y="344" width="40" height="8" fill="#ffd700" />
  <rect x="796" y="340" width="40" height="8" fill="#ffd700" />
  <rect x="824" y="348" width="16" height="8" fill="#ffd700" />
  
  <rect x="760" y="340" width="16" height="16" fill="#ffd700" />
  
  <rect x="764" y="344" width="4" height="4" fill="#000" />
  
  <rect x="776" y="348" width="8" height="4" fill="#ff8800" />

  
  <rect x="640" y="520" width="256" height="40" fill="#0a1a55" />
  <text x="768" y="548" font-family="'Courier New', monospace" font-size="28" font-weight="bold" fill="#ffd700" text-anchor="middle" letter-spacing="4">F H F A</text>

  
  <rect x="600" y="574" width="48" height="48" fill="#ffd700" opacity="0.8" />
  <rect x="608" y="582" width="32" height="32" fill="#1a2a44" />
  <rect x="608" y="582" width="32" height="4" fill="#2a3a54" />
  <rect x="608" y="598" width="32" height="4" fill="#2a3a54" />
  <rect x="622" y="582" width="4" height="32" fill="#2a3a54" />

  <rect x="680" y="574" width="48" height="48" fill="#ffd700" opacity="0.8" />
  <rect x="688" y="582" width="32" height="32" fill="#1a2a44" />
  <rect x="688" y="582" width="32" height="4" fill="#2a3a54" />
  <rect x="688" y="598" width="32" height="4" fill="#2a3a54" />
  <rect x="702" y="582" width="4" height="32" fill="#2a3a54" />

  <rect x="808" y="574" width="48" height="48" fill="#ffd700" opacity="0.8" />
  <rect x="816" y="582" width="32" height="32" fill="#1a2a44" />
  <rect x="816" y="582" width="32" height="4" fill="#2a3a54" />
  <rect x="816" y="598" width="32" height="4" fill="#2a3a54" />
  <rect x="830" y="582" width="4" height="32" fill="#2a3a54" />

  <rect x="888" y="574" width="48" height="48" fill="#ffd700" opacity="0.8" />
  <rect x="896" y="582" width="32" height="32" fill="#1a2a44" />
  <rect x="896" y="582" width="32" height="4" fill="#2a3a54" />
  <rect x="896" y="598" width="32" height="4" fill="#2a3a54" />
  <rect x="910" y="582" width="4" height="32" fill="#2a3a54" />

  
  <rect x="720" y="680" width="96" height="118" fill="#8B4513" />
  <rect x="728" y="688" width="80" height="102" fill="#6B3410" />
  
  <rect x="720" y="680" width="8" height="118" fill="#5a3010" />
  <rect x="808" y="680" width="8" height="118" fill="#5a3010" />
  <rect x="720" y="680" width="96" height="8" fill="#5a3010" />
  <rect x="756" y="730" width="8" height="8" fill="#ffd700" />

  
  
  <rect x="480" y="650" width="16" height="16" fill="#aaaaaa" />
  <rect x="504" y="642" width="16" height="16" fill="#aaaaaa" />
  <rect x="528" y="650" width="16" height="16" fill="#aaaaaa" />
  <rect x="552" y="642" width="16" height="16" fill="#aaaaaa" />
  <rect x="480" y="642" width="16" height="8" fill="#888" />
  <rect x="504" y="650" width="16" height="8" fill="#888" />
  <rect x="528" y="642" width="16" height="8" fill="#888" />
  <rect x="552" y="650" width="16" height="8" fill="#888" />

  
  <rect x="984" y="650" width="16" height="16" fill="#aaaaaa" />
  <rect x="1008" y="642" width="16" height="16" fill="#aaaaaa" />
  <rect x="1032" y="650" width="16" height="16" fill="#aaaaaa" />
  <rect x="984" y="642" width="16" height="8" fill="#888" />
  <rect x="1008" y="650" width="16" height="8" fill="#888" />
  <rect x="1032" y="642" width="16" height="8" fill="#888" />

  
  
  <text x="90" y="480" font-family="'Courier New', monospace" font-size="64" font-weight="bold" fill="#00ff41" opacity="0.4" filter="url(#bloom)">$</text>
  <text x="1430" y="480" font-family="'Courier New', monospace" font-size="64" font-weight="bold" fill="#00ff41" opacity="0.4" filter="url(#bloom)">$</text>
  <text x="60" y="380" font-family="'Courier New', monospace" font-size="40" font-weight="bold" fill="#ffd700" opacity="0.3">$5T</text>
  <text x="1440" y="380" font-family="'Courier New', monospace" font-size="40" font-weight="bold" fill="#ffd700" opacity="0.3">$5T</text>

  
  <g transform="rotate(-12, 768, 512)">
    <rect x="530" y="220" width="476" height="96" fill="#cc0000" opacity="0.9" rx="0" />
    <rect x="534" y="224" width="468" height="88" fill="none" stroke="#ff4444" stroke-width="4" />
    <text x="768" y="285" font-family="'Courier New', monospace" font-size="56" font-weight="bold" fill="#ffffff" text-anchor="middle" letter-spacing="8">SEIZED</text>
  </g>

  
  <text x="768" y="160" font-family="'Courier New', monospace" font-size="28" font-weight="bold" fill="#00ff41" text-anchor="middle" letter-spacing="4" filter="url(#bloom)">SEPT. 7, 2008</text>

  
  <rect x="0" y="0" width="1536" height="16" fill="#1144aa" />
  <rect x="0" y="16" width="1536" height="8" fill="#2255cc" />
  
  <rect x="0" y="0" width="32" height="24" fill="#2255cc" />
  <rect x="64" y="0" width="32" height="24" fill="#2255cc" />
  <rect x="128" y="0" width="32" height="24" fill="#2255cc" />
  <rect x="192" y="0" width="32" height="24" fill="#2255cc" />
  <rect x="256" y="0" width="32" height="24" fill="#2255cc" />
  <rect x="320" y="0" width="32" height="24" fill="#2255cc" />
  <rect x="384" y="0" width="32" height="24" fill="#2255cc" />
  <rect x="448" y="0" width="32" height="24" fill="#2255cc" />
  <rect x="512" y="0" width="32" height="24" fill="#2255cc" />
  <rect x="576" y="0" width="32" height="24" fill="#2255cc" />
  <rect x="640" y="0" width="32" height="24" fill="#2255cc" />
  <rect x="704" y="0" width="32" height="24" fill="#2255cc" />
  <rect x="768" y="0" width="32" height="24" fill="#2255cc" />
  <rect x="832" y="0" width="32" height="24" fill="#2255cc" />
  <rect x="896" y="0" width="32" height="24" fill="#2255cc" />
  <rect x="960" y="0" width="32" height="24" fill="#2255cc" />
  <rect x="1024" y="0" width="32" height="24" fill="#2255cc" />
  <rect x="1088" y="0" width="32" height="24" fill="#2255cc" />
  <rect x="1152" y="0" width="32" height="24" fill="#2255cc" />
  <rect x="1216" y="0" width="32" height="24" fill="#2255cc" />
  <rect x="1280" y="0" width="32" height="24" fill="#2255cc" />
  <rect x="1344" y="0" width="32" height="24" fill="#2255cc" />
  <rect x="1408" y="0" width="32" height="24" fill="#2255cc" />
  <rect x="1472" y="0" width="32" height="24" fill="#2255cc" />

  
  <rect x="0" y="1000" width="1536" height="24" fill="#1144aa" />
  <rect x="0" y="992" width="1536" height="8" fill="#2255cc" />

  
  <text x="768" y="70" font-family="'Courier New', monospace" font-size="48" font-weight="bold" fill="#ffd700" text-anchor="middle" letter-spacing="2" filter="url(#bloom)">FANNIE MAE &amp; FREDDIE MAC</text>
  <text x="768" y="124" font-family="'Courier New', monospace" font-size="36" font-weight="bold" fill="#00ff41" text-anchor="middle" letter-spacing="3" filter="url(#bloom)">CONSERVATORSHIP</text>

  
  <text x="768" y="870" font-family="'Courier New', monospace" font-size="20" fill="#00ff41" text-anchor="middle" letter-spacing="2" opacity="0.9">GSE TAKEOVER ■ $5 TRILLION IN MORTGAGES ■ US HOUSING CRISIS 2008</text>
  <text x="768" y="910" font-family="'Courier New', monospace" font-size="18" fill="#aaaaaa" text-anchor="middle" letter-spacing="1">PAULSON ■ LOCKHART ■ BERNANKE ■ MUDD ■ SYRON</text>

  
  <rect x="40" y="940" width="300" height="40" fill="#001400" />
  <rect x="40" y="940" width="300" height="40" fill="none" stroke="#00ff41" stroke-width="2" />
  <text x="56" y="968" font-family="'Courier New', monospace" font-size="18" fill="#00ff41">SCORE: 000000000</text>

  <rect x="1196" y="940" width="300" height="40" fill="#001400" />
  <rect x="1196" y="940" width="300" height="40" fill="none" stroke="#00ff41" stroke-width="2" />
  <text x="1212" y="968" font-family="'Courier New', monospace" font-size="18" fill="#ff3030">LIVES: ▓▓░░░░░░</text>

  
  <rect x="540" y="950" width="456" height="44" fill="#000" opacity="0.7" />
  <text x="768" y="983" font-family="'Courier New', monospace" font-size="30" font-weight="bold" fill="#ff3030" text-anchor="middle" letter-spacing="6" filter="url(#bloom)">GAME OVER</text>

  
  <radialGradient id="vignette" cx="50%" cy="50%" r="70%">
    <stop offset="60%" stop-color="transparent" />
    <stop offset="100%" stop-color="#000000" stop-opacity="0.6" />
  </radialGradient>
  <rect width="1536" height="1024" fill="url(#vignette)" />
</svg>