<svg xmlns="http://www.w3.org/2000/svg" viewBox="0 0 1536 1024" role="img" width="1536" height="1024">
  <title>Jean-Marie Gustave Le Clézio Wins Nobel Prize in Literature – Retro Pixel Art Banner</title>

  <defs>
    <radialGradient id="crtGlow" cx="50%" cy="50%" r="60%">
      <stop offset="0%" stop-color="#1a0a2e" />
      <stop offset="100%" stop-color="#050008" />
    </radialGradient>
    <radialGradient id="medalGlow" cx="50%" cy="50%" r="50%">
      <stop offset="0%" stop-color="#ffe066" />
      <stop offset="100%" stop-color="#b8860b" />
    </radialGradient>
    <filter id="crtBlur">
      <feGaussianBlur stdDeviation="1.2" result="blur" />
      <feMerge><feMergeNode in="blur" /><feMergeNode in="SourceGraphic" /></feMerge>
    </filter>
    <filter id="glow">
      <feGaussianBlur stdDeviation="4" result="coloredBlur" />
      <feMerge><feMergeNode in="coloredBlur" /><feMergeNode in="SourceGraphic" /></feMerge>
    </filter>
    <filter id="goldGlow">
      <feGaussianBlur stdDeviation="6" result="coloredBlur" />
      <feMerge><feMergeNode in="coloredBlur" /><feMergeNode in="SourceGraphic" /></feMerge>
    </filter>
  </defs>

  
  <rect width="1536" height="1024" fill="url(#crtGlow)" />

  
  <g opacity="0.12">
    <rect x="0" y="0" width="1536" height="2" fill="#00ff88" />
    <rect x="0" y="4" width="1536" height="2" fill="#00ff88" />
    <rect x="0" y="8" width="1536" height="2" fill="#00ff88" />
    <rect x="0" y="12" width="1536" height="2" fill="#00ff88" />
    <rect x="0" y="16" width="1536" height="2" fill="#00ff88" />
    <rect x="0" y="20" width="1536" height="2" fill="#00ff88" />
    <rect x="0" y="24" width="1536" height="2" fill="#00ff88" />
    <rect x="0" y="28" width="1536" height="2" fill="#00ff88" />
    <rect x="0" y="32" width="1536" height="2" fill="#00ff88" />
    <rect x="0" y="36" width="1536" height="2" fill="#00ff88" />
    <rect x="0" y="40" width="1536" height="2" fill="#00ff88" />
    <rect x="0" y="44" width="1536" height="2" fill="#00ff88" />
    <rect x="0" y="48" width="1536" height="2" fill="#00ff88" />
    <rect x="0" y="52" width="1536" height="2" fill="#00ff88" />
    <rect x="0" y="56" width="1536" height="2" fill="#00ff88" />
    <rect x="0" y="60" width="1536" height="2" fill="#00ff88" />
    <rect x="0" y="64" width="1536" height="2" fill="#00ff88" />
    <rect x="0" y="68" width="1536" height="2" fill="#00ff88" />
    <rect x="0" y="72" width="1536" height="2" fill="#00ff88" />
    <rect x="0" y="76" width="1536" height="2" fill="#00ff88" />
    <rect x="0" y="80" width="1536" height="2" fill="#00ff88" />
    <rect x="0" y="84" width="1536" height="2" fill="#00ff88" />
    <rect x="0" y="88" width="1536" height="2" fill="#00ff88" />
    <rect x="0" y="92" width="1536" height="2" fill="#00ff88" />
    <rect x="0" y="96" width="1536" height="2" fill="#00ff88" />
    <rect x="0" y="100" width="1536" height="2" fill="#00ff88" />
    <rect x="0" y="104" width="1536" height="2" fill="#00ff88" />
    <rect x="0" y="108" width="1536" height="2" fill="#00ff88" />
    <rect x="0" y="112" width="1536" height="2" fill="#00ff88" />
    <rect x="0" y="116" width="1536" height="2" fill="#00ff88" />
    <rect x="0" y="120" width="1536" height="2" fill="#00ff88" />
    <rect x="0" y="124" width="1536" height="2" fill="#00ff88" />
    <rect x="0" y="128" width="1536" height="2" fill="#00ff88" />
    <rect x="0" y="132" width="1536" height="2" fill="#00ff88" />
    <rect x="0" y="136" width="1536" height="2" fill="#00ff88" />
    <rect x="0" y="140" width="1536" height="2" fill="#00ff88" />
    <rect x="0" y="144" width="1536" height="2" fill="#00ff88" />
    <rect x="0" y="148" width="1536" height="2" fill="#00ff88" />
    <rect x="0" y="152" width="1536" height="2" fill="#00ff88" />
    <rect x="0" y="156" width="1536" height="2" fill="#00ff88" />
    <rect x="0" y="160" width="1536" height="2" fill="#00ff88" />
    <rect x="0" y="164" width="1536" height="2" fill="#00ff88" />
    <rect x="0" y="168" width="1536" height="2" fill="#00ff88" />
    <rect x="0" y="172" width="1536" height="2" fill="#00ff88" />
    <rect x="0" y="176" width="1536" height="2" fill="#00ff88" />
    <rect x="0" y="180" width="1536" height="2" fill="#00ff88" />
    <rect x="0" y="184" width="1536" height="2" fill="#00ff88" />
    <rect x="0" y="188" width="1536" height="2" fill="#00ff88" />
    <rect x="0" y="192" width="1536" height="2" fill="#00ff88" />
    <rect x="0" y="196" width="1536" height="2" fill="#00ff88" />
    <rect x="0" y="200" width="1536" height="2" fill="#00ff88" />
    <rect x="0" y="204" width="1536" height="2" fill="#00ff88" />
    <rect x="0" y="208" width="1536" height="2" fill="#00ff88" />
    <rect x="0" y="212" width="1536" height="2" fill="#00ff88" />
    <rect x="0" y="216" width="1536" height="2" fill="#00ff88" />
    <rect x="0" y="220" width="1536" height="2" fill="#00ff88" />
    <rect x="0" y="224" width="1536" height="2" fill="#00ff88" />
    <rect x="0" y="228" width="1536" height="2" fill="#00ff88" />
    <rect x="0" y="232" width="1536" height="2" fill="#00ff88" />
    <rect x="0" y="236" width="1536" height="2" fill="#00ff88" />
    <rect x="0" y="240" width="1536" height="2" fill="#00ff88" />
    <rect x="0" y="244" width="1536" height="2" fill="#00ff88" />
    <rect x="0" y="248" width="1536" height="2" fill="#00ff88" />
    <rect x="0" y="252" width="1536" height="2" fill="#00ff88" />
    <rect x="0" y="256" width="1536" height="2" fill="#00ff88" />
    <rect x="0" y="260" width="1536" height="2" fill="#00ff88" />
    <rect x="0" y="264" width="1536" height="2" fill="#00ff88" />
    <rect x="0" y="268" width="1536" height="2" fill="#00ff88" />
    <rect x="0" y="272" width="1536" height="2" fill="#00ff88" />
    <rect x="0" y="276" width="1536" height="2" fill="#00ff88" />
    <rect x="0" y="280" width="1536" height="2" fill="#00ff88" />
    <rect x="0" y="284" width="1536" height="2" fill="#00ff88" />
    <rect x="0" y="288" width="1536" height="2" fill="#00ff88" />
    <rect x="0" y="292" width="1536" height="2" fill="#00ff88" />
    <rect x="0" y="296" width="1536" height="2" fill="#00ff88" />
    <rect x="0" y="300" width="1536" height="2" fill="#00ff88" />
    <rect x="0" y="304" width="1536" height="2" fill="#00ff88" />
    <rect x="0" y="308" width="1536" height="2" fill="#00ff88" />
    <rect x="0" y="312" width="1536" height="2" fill="#00ff88" />
    <rect x="0" y="316" width="1536" height="2" fill="#00ff88" />
    <rect x="0" y="320" width="1536" height="2" fill="#00ff88" />
    <rect x="0" y="324" width="1536" height="2" fill="#00ff88" />
    <rect x="0" y="328" width="1536" height="2" fill="#00ff88" />
    <rect x="0" y="332" width="1536" height="2" fill="#00ff88" />
    <rect x="0" y="336" width="1536" height="2" fill="#00ff88" />
    <rect x="0" y="340" width="1536" height="2" fill="#00ff88" />
    <rect x="0" y="344" width="1536" height="2" fill="#00ff88" />
    <rect x="0" y="348" width="1536" height="2" fill="#00ff88" />
    <rect x="0" y="352" width="1536" height="2" fill="#00ff88" />
    <rect x="0" y="356" width="1536" height="2" fill="#00ff88" />
    <rect x="0" y="360" width="1536" height="2" fill="#00ff88" />
    <rect x="0" y="364" width="1536" height="2" fill="#00ff88" />
    <rect x="0" y="368" width="1536" height="2" fill="#00ff88" />
    <rect x="0" y="372" width="1536" height="2" fill="#00ff88" />
    <rect x="0" y="376" width="1536" height="2" fill="#00ff88" />
    <rect x="0" y="380" width="1536" height="2" fill="#00ff88" />
    <rect x="0" y="384" width="1536" height="2" fill="#00ff88" />
    <rect x="0" y="388" width="1536" height="2" fill="#00ff88" />
    <rect x="0" y="392" width="1536" height="2" fill="#00ff88" />
    <rect x="0" y="396" width="1536" height="2" fill="#00ff88" />
    <rect x="0" y="400" width="1536" height="2" fill="#00ff88" />
    <rect x="0" y="404" width="1536" height="2" fill="#00ff88" />
    <rect x="0" y="408" width="1536" height="2" fill="#00ff88" />
    <rect x="0" y="412" width="1536" height="2" fill="#00ff88" />
    <rect x="0" y="416" width="1536" height="2" fill="#00ff88" />
    <rect x="0" y="420" width="1536" height="2" fill="#00ff88" />
    <rect x="0" y="424" width="1536" height="2" fill="#00ff88" />
    <rect x="0" y="428" width="1536" height="2" fill="#00ff88" />
    <rect x="0" y="432" width="1536" height="2" fill="#00ff88" />
    <rect x="0" y="436" width="1536" height="2" fill="#00ff88" />
    <rect x="0" y="440" width="1536" height="2" fill="#00ff88" />
    <rect x="0" y="444" width="1536" height="2" fill="#00ff88" />
    <rect x="0" y="448" width="1536" height="2" fill="#00ff88" />
    <rect x="0" y="452" width="1536" height="2" fill="#00ff88" />
    <rect x="0" y="456" width="1536" height="2" fill="#00ff88" />
    <rect x="0" y="460" width="1536" height="2" fill="#00ff88" />
    <rect x="0" y="464" width="1536" height="2" fill="#00ff88" />
    <rect x="0" y="468" width="1536" height="2" fill="#00ff88" />
    <rect x="0" y="472" width="1536" height="2" fill="#00ff88" />
    <rect x="0" y="476" width="1536" height="2" fill="#00ff88" />
    <rect x="0" y="480" width="1536" height="2" fill="#00ff88" />
    <rect x="0" y="484" width="1536" height="2" fill="#00ff88" />
    <rect x="0" y="488" width="1536" height="2" fill="#00ff88" />
    <rect x="0" y="492" width="1536" height="2" fill="#00ff88" />
    <rect x="0" y="496" width="1536" height="2" fill="#00ff88" />
    <rect x="0" y="500" width="1536" height="2" fill="#00ff88" />
    <rect x="0" y="504" width="1536" height="2" fill="#00ff88" />
    <rect x="0" y="508" width="1536" height="2" fill="#00ff88" />
    <rect x="0" y="512" width="1536" height="2" fill="#00ff88" />
    <rect x="0" y="516" width="1536" height="2" fill="#00ff88" />
    <rect x="0" y="520" width="1536" height="2" fill="#00ff88" />
    <rect x="0" y="524" width="1536" height="2" fill="#00ff88" />
    <rect x="0" y="528" width="1536" height="2" fill="#00ff88" />
    <rect x="0" y="532" width="1536" height="2" fill="#00ff88" />
    <rect x="0" y="536" width="1536" height="2" fill="#00ff88" />
    <rect x="0" y="540" width="1536" height="2" fill="#00ff88" />
    <rect x="0" y="544" width="1536" height="2" fill="#00ff88" />
    <rect x="0" y="548" width="1536" height="2" fill="#00ff88" />
    <rect x="0" y="552" width="1536" height="2" fill="#00ff88" />
    <rect x="0" y="556" width="1536" height="2" fill="#00ff88" />
    <rect x="0" y="560" width="1536" height="2" fill="#00ff88" />
    <rect x="0" y="564" width="1536" height="2" fill="#00ff88" />
    <rect x="0" y="568" width="1536" height="2" fill="#00ff88" />
    <rect x="0" y="572" width="1536" height="2" fill="#00ff88" />
    <rect x="0" y="576" width="1536" height="2" fill="#00ff88" />
    <rect x="0" y="580" width="1536" height="2" fill="#00ff88" />
    <rect x="0" y="584" width="1536" height="2" fill="#00ff88" />
    <rect x="0" y="588" width="1536" height="2" fill="#00ff88" />
    <rect x="0" y="592" width="1536" height="2" fill="#00ff88" />
    <rect x="0" y="596" width="1536" height="2" fill="#00ff88" />
    <rect x="0" y="600" width="1536" height="2" fill="#00ff88" />
    <rect x="0" y="604" width="1536" height="2" fill="#00ff88" />
    <rect x="0" y="608" width="1536" height="2" fill="#00ff88" />
    <rect x="0" y="612" width="1536" height="2" fill="#00ff88" />
    <rect x="0" y="616" width="1536" height="2" fill="#00ff88" />
    <rect x="0" y="620" width="1536" height="2" fill="#00ff88" />
    <rect x="0" y="624" width="1536" height="2" fill="#00ff88" />
    <rect x="0" y="628" width="1536" height="2" fill="#00ff88" />
    <rect x="0" y="632" width="1536" height="2" fill="#00ff88" />
    <rect x="0" y="636" width="1536" height="2" fill="#00ff88" />
    <rect x="0" y="640" width="1536" height="2" fill="#00ff88" />
    <rect x="0" y="644" width="1536" height="2" fill="#00ff88" />
    <rect x="0" y="648" width="1536" height="2" fill="#00ff88" />
    <rect x="0" y="652" width="1536" height="2" fill="#00ff88" />
    <rect x="0" y="656" width="1536" height="2" fill="#00ff88" />
    <rect x="0" y="660" width="1536" height="2" fill="#00ff88" />
    <rect x="0" y="664" width="1536" height="2" fill="#00ff88" />
    <rect x="0" y="668" width="1536" height="2" fill="#00ff88" />
    <rect x="0" y="672" width="1536" height="2" fill="#00ff88" />
    <rect x="0" y="676" width="1536" height="2" fill="#00ff88" />
    <rect x="0" y="680" width="1536" height="2" fill="#00ff88" />
    <rect x="0" y="684" width="1536" height="2" fill="#00ff88" />
    <rect x="0" y="688" width="1536" height="2" fill="#00ff88" />
    <rect x="0" y="692" width="1536" height="2" fill="#00ff88" />
    <rect x="0" y="696" width="1536" height="2" fill="#00ff88" />
    <rect x="0" y="700" width="1536" height="2" fill="#00ff88" />
    <rect x="0" y="704" width="1536" height="2" fill="#00ff88" />
    <rect x="0" y="708" width="1536" height="2" fill="#00ff88" />
    <rect x="0" y="712" width="1536" height="2" fill="#00ff88" />
    <rect x="0" y="716" width="1536" height="2" fill="#00ff88" />
    <rect x="0" y="720" width="1536" height="2" fill="#00ff88" />
    <rect x="0" y="724" width="1536" height="2" fill="#00ff88" />
    <rect x="0" y="728" width="1536" height="2" fill="#00ff88" />
    <rect x="0" y="732" width="1536" height="2" fill="#00ff88" />
    <rect x="0" y="736" width="1536" height="2" fill="#00ff88" />
    <rect x="0" y="740" width="1536" height="2" fill="#00ff88" />
    <rect x="0" y="744" width="1536" height="2" fill="#00ff88" />
    <rect x="0" y="748" width="1536" height="2" fill="#00ff88" />
    <rect x="0" y="752" width="1536" height="2" fill="#00ff88" />
    <rect x="0" y="756" width="1536" height="2" fill="#00ff88" />
    <rect x="0" y="760" width="1536" height="2" fill="#00ff88" />
    <rect x="0" y="764" width="1536" height="2" fill="#00ff88" />
    <rect x="0" y="768" width="1536" height="2" fill="#00ff88" />
    <rect x="0" y="772" width="1536" height="2" fill="#00ff88" />
    <rect x="0" y="776" width="1536" height="2" fill="#00ff88" />
    <rect x="0" y="780" width="1536" height="2" fill="#00ff88" />
    <rect x="0" y="784" width="1536" height="2" fill="#00ff88" />
    <rect x="0" y="788" width="1536" height="2" fill="#00ff88" />
    <rect x="0" y="792" width="1536" height="2" fill="#00ff88" />
    <rect x="0" y="796" width="1536" height="2" fill="#00ff88" />
    <rect x="0" y="800" width="1536" height="2" fill="#00ff88" />
    <rect x="0" y="804" width="1536" height="2" fill="#00ff88" />
    <rect x="0" y="808" width="1536" height="2" fill="#00ff88" />
    <rect x="0" y="812" width="1536" height="2" fill="#00ff88" />
    <rect x="0" y="816" width="1536" height="2" fill="#00ff88" />
    <rect x="0" y="820" width="1536" height="2" fill="#00ff88" />
    <rect x="0" y="824" width="1536" height="2" fill="#00ff88" />
    <rect x="0" y="828" width="1536" height="2" fill="#00ff88" />
    <rect x="0" y="832" width="1536" height="2" fill="#00ff88" />
    <rect x="0" y="836" width="1536" height="2" fill="#00ff88" />
    <rect x="0" y="840" width="1536" height="2" fill="#00ff88" />
    <rect x="0" y="844" width="1536" height="2" fill="#00ff88" />
    <rect x="0" y="848" width="1536" height="2" fill="#00ff88" />
    <rect x="0" y="852" width="1536" height="2" fill="#00ff88" />
    <rect x="0" y="856" width="1536" height="2" fill="#00ff88" />
    <rect x="0" y="860" width="1536" height="2" fill="#00ff88" />
    <rect x="0" y="864" width="1536" height="2" fill="#00ff88" />
    <rect x="0" y="868" width="1536" height="2" fill="#00ff88" />
    <rect x="0" y="872" width="1536" height="2" fill="#00ff88" />
    <rect x="0" y="876" width="1536" height="2" fill="#00ff88" />
    <rect x="0" y="880" width="1536" height="2" fill="#00ff88" />
    <rect x="0" y="884" width="1536" height="2" fill="#00ff88" />
    <rect x="0" y="888" width="1536" height="2" fill="#00ff88" />
    <rect x="0" y="892" width="1536" height="2" fill="#00ff88" />
    <rect x="0" y="896" width="1536" height="2" fill="#00ff88" />
    <rect x="0" y="900" width="1536" height="2" fill="#00ff88" />
    <rect x="0" y="904" width="1536" height="2" fill="#00ff88" />
    <rect x="0" y="908" width="1536" height="2" fill="#00ff88" />
    <rect x="0" y="912" width="1536" height="2" fill="#00ff88" />
    <rect x="0" y="916" width="1536" height="2" fill="#00ff88" />
    <rect x="0" y="920" width="1536" height="2" fill="#00ff88" />
    <rect x="0" y="924" width="1536" height="2" fill="#00ff88" />
    <rect x="0" y="928" width="1536" height="2" fill="#00ff88" />
    <rect x="0" y="932" width="1536" height="2" fill="#00ff88" />
    <rect x="0" y="936" width="1536" height="2" fill="#00ff88" />
    <rect x="0" y="940" width="1536" height="2" fill="#00ff88" />
    <rect x="0" y="944" width="1536" height="2" fill="#00ff88" />
    <rect x="0" y="948" width="1536" height="2" fill="#00ff88" />
    <rect x="0" y="952" width="1536" height="2" fill="#00ff88" />
    <rect x="0" y="956" width="1536" height="2" fill="#00ff88" />
    <rect x="0" y="960" width="1536" height="2" fill="#00ff88" />
    <rect x="0" y="964" width="1536" height="2" fill="#00ff88" />
    <rect x="0" y="968" width="1536" height="2" fill="#00ff88" />
    <rect x="0" y="972" width="1536" height="2" fill="#00ff88" />
    <rect x="0" y="976" width="1536" height="2" fill="#00ff88" />
    <rect x="0" y="980" width="1536" height="2" fill="#00ff88" />
    <rect x="0" y="984" width="1536" height="2" fill="#00ff88" />
    <rect x="0" y="988" width="1536" height="2" fill="#00ff88" />
    <rect x="0" y="992" width="1536" height="2" fill="#00ff88" />
    <rect x="0" y="996" width="1536" height="2" fill="#00ff88" />
    <rect x="0" y="1000" width="1536" height="2" fill="#00ff88" />
    <rect x="0" y="1004" width="1536" height="2" fill="#00ff88" />
    <rect x="0" y="1008" width="1536" height="2" fill="#00ff88" />
    <rect x="0" y="1012" width="1536" height="2" fill="#00ff88" />
    <rect x="0" y="1016" width="1536" height="2" fill="#00ff88" />
    <rect x="0" y="1020" width="1536" height="2" fill="#00ff88" />
  </g>

  
  <rect x="80" y="60" width="8" height="8" fill="#ffffff" opacity="0.8" />
  <rect x="200" y="120" width="6" height="6" fill="#ffff00" opacity="0.7" />
  <rect x="350" y="40" width="8" height="8" fill="#ffffff" opacity="0.6" />
  <rect x="500" y="90" width="6" height="6" fill="#00ffff" opacity="0.7" />
  <rect x="700" y="55" width="8" height="8" fill="#ffffff" opacity="0.8" />
  <rect x="900" y="30" width="6" height="6" fill="#ffff00" opacity="0.6" />
  <rect x="1100" y="80" width="8" height="8" fill="#ffffff" opacity="0.7" />
  <rect x="1300" y="45" width="6" height="6" fill="#00ffff" opacity="0.8" />
  <rect x="1450" y="100" width="8" height="8" fill="#ffffff" opacity="0.6" />
  <rect x="140" y="950" width="6" height="6" fill="#ffffff" opacity="0.7" />
  <rect x="400" y="970" width="8" height="8" fill="#ffff00" opacity="0.6" />
  <rect x="800" y="960" width="6" height="6" fill="#ffffff" opacity="0.8" />
  <rect x="1200" y="940" width="8" height="8" fill="#00ffff" opacity="0.7" />
  <rect x="60" y="500" width="6" height="6" fill="#ff88ff" opacity="0.7" />
  <rect x="1480" y="480" width="6" height="6" fill="#ff88ff" opacity="0.7" />
  <rect x="1480" y="600" width="8" height="8" fill="#ffffff" opacity="0.5" />
  <rect x="60" y="700" width="8" height="8" fill="#ffff00" opacity="0.5" />

  
  
  <rect x="80" y="700" width="160" height="200" fill="#cc2244" />
  <rect x="80" y="700" width="16" height="200" fill="#991133" />
  <rect x="88" y="720" width="8" height="160" fill="#ff4466" />
  <rect x="96" y="700" width="144" height="8" fill="#ee3355" />
  <rect x="96" y="892" width="144" height="8" fill="#ee3355" />
  
  <rect x="104" y="740" width="120" height="8" fill="#ff8899" opacity="0.8" />
  <rect x="104" y="760" width="88" height="8" fill="#ff8899" opacity="0.6" />
  <rect x="104" y="780" width="104" height="8" fill="#ff8899" opacity="0.7" />

  
  <rect x="96" y="580" width="148" height="120" fill="#2244cc" />
  <rect x="96" y="580" width="14" height="120" fill="#1133aa" />
  <rect x="104" y="598" width="8" height="86" fill="#4466ff" />
  <rect x="112" y="580" width="132" height="8" fill="#3355ee" />
  <rect x="112" y="692" width="132" height="8" fill="#3355ee" />
  <rect x="118" y="600" width="100" height="8" fill="#aabbff" opacity="0.8" />
  <rect x="118" y="618" width="72" height="8" fill="#aabbff" opacity="0.6" />

  
  <rect x="104" y="484" width="132" height="96" fill="#22aa44" />
  <rect x="104" y="484" width="12" height="96" fill="#118833" />
  <rect x="112" y="500" width="8" height="64" fill="#44cc66" />
  <rect x="120" y="484" width="116" height="8" fill="#33bb55" />
  <rect x="120" y="572" width="116" height="8" fill="#33bb55" />
  <rect x="126" y="502" width="88" height="8" fill="#aaffbb" opacity="0.8" />
  <rect x="126" y="518" width="64" height="8" fill="#aaffbb" opacity="0.6" />

  
  
  <rect x="1296" y="640" width="156" height="260" fill="#aa44cc" />
  <rect x="1296" y="640" width="14" height="260" fill="#882299" />
  <rect x="1302" y="660" width="8" height="216" fill="#cc66ee" />
  <rect x="1310" y="640" width="142" height="8" fill="#bb55dd" />
  <rect x="1310" y="892" width="142" height="8" fill="#bb55dd" />
  <rect x="1318" y="668" width="112" height="8" fill="#eec0ff" opacity="0.8" />
  <rect x="1318" y="688" width="80" height="8" fill="#eec0ff" opacity="0.6" />
  <rect x="1318" y="708" width="96" height="8" fill="#eec0ff" opacity="0.7" />

  
  <rect x="1308" y="524" width="140" height="116" fill="#cc8822" />
  <rect x="1308" y="524" width="12" height="116" fill="#aa6611" />
  <rect x="1316" y="540" width="8" height="84" fill="#eeaa44" />
  <rect x="1324" y="524" width="124" height="8" fill="#dd9933" />
  <rect x="1324" y="632" width="124" height="8" fill="#dd9933" />
  <rect x="1330" y="544" width="96" height="8" fill="#ffddaa" opacity="0.8" />
  <rect x="1330" y="562" width="72" height="8" fill="#ffddaa" opacity="0.6" />

  
  
  <rect x="744" y="80" width="48" height="16" fill="#003f8a" />
  <rect x="736" y="96" width="64" height="8" fill="#0050bb" />
  <rect x="728" y="104" width="80" height="8" fill="#003f8a" />
  <rect x="728" y="112" width="16" height="120" fill="#ffcc00" />
  <rect x="792" y="112" width="16" height="120" fill="#ffcc00" />
  <rect x="744" y="112" width="48" height="8" fill="#0050bb" />
  <rect x="744" y="120" width="48" height="8" fill="#003f8a" />
  <rect x="744" y="128" width="48" height="8" fill="#0050bb" />
  <rect x="744" y="136" width="48" height="8" fill="#003f8a" />
  <rect x="744" y="144" width="48" height="8" fill="#0050bb" />
  <rect x="744" y="152" width="48" height="8" fill="#003f8a" />
  <rect x="744" y="160" width="48" height="8" fill="#0050bb" />
  <rect x="744" y="168" width="48" height="8" fill="#003f8a" />
  <rect x="744" y="176" width="48" height="8" fill="#0050bb" />
  <rect x="744" y="184" width="48" height="8" fill="#003f8a" />
  <rect x="744" y="192" width="48" height="8" fill="#0050bb" />
  <rect x="744" y="200" width="48" height="8" fill="#ffcc00" />
  <rect x="744" y="208" width="48" height="8" fill="#ffcc00" />
  <rect x="744" y="216" width="48" height="8" fill="#ffcc00" />
  <rect x="744" y="224" width="48" height="8" fill="#ffcc00" />

  
  
  
  <rect x="632" y="280" width="272" height="272" rx="0" fill="none" />
  
  
  
  <rect x="620" y="268" width="296" height="296" fill="#ffe066" opacity="0.15" filter="url(#goldGlow)" />

  
  
  <rect x="680" y="252" width="176" height="16" fill="#c8860b" />
  <rect x="648" y="268" width="240" height="16" fill="#c8860b" />
  <rect x="632" y="284" width="272" height="16" fill="#c8860b" />
  <rect x="624" y="300" width="288" height="16" fill="#c8860b" />
  <rect x="616" y="316" width="304" height="208" fill="#c8860b" />
  <rect x="624" y="524" width="288" height="16" fill="#c8860b" />
  <rect x="632" y="540" width="272" height="16" fill="#c8860b" />
  <rect x="648" y="556" width="240" height="16" fill="#c8860b" />
  <rect x="680" y="572" width="176" height="16" fill="#c8860b" />

  
  <rect x="696" y="268" width="144" height="8" fill="#ffe066" />
  <rect x="664" y="276" width="208" height="8" fill="#ffe066" />
  <rect x="648" y="284" width="240" height="8" fill="#ffe066" />
  <rect x="640" y="292" width="256" height="232" fill="#ffe066" />
  <rect x="648" y="524" width="240" height="8" fill="#ffe066" />
  <rect x="664" y="532" width="208" height="8" fill="#ffe066" />
  <rect x="696" y="540" width="144" height="8" fill="#ffe066" />

  
  <rect x="664" y="276" width="80" height="8" fill="#fff4bb" opacity="0.7" />
  <rect x="648" y="284" width="96" height="8" fill="#fff4bb" opacity="0.5" />
  <rect x="640" y="292" width="80" height="32" fill="#fff4bb" opacity="0.3" />

  
  
  
  <rect x="736" y="308" width="64" height="8" fill="#b8860b" />
  <rect x="728" y="316" width="80" height="8" fill="#b8860b" />
  <rect x="720" y="324" width="96" height="48" fill="#b8860b" />
  <rect x="728" y="372" width="80" height="8" fill="#b8860b" />
  <rect x="736" y="380" width="64" height="8" fill="#b8860b" />
  
  <rect x="712" y="388" width="112" height="8" fill="#b8860b" />
  <rect x="704" y="396" width="128" height="40" fill="#b8860b" />
  <rect x="696" y="436" width="144" height="8" fill="#b8860b" />
  
  <rect x="736" y="332" width="12" height="12" fill="#ffe066" />
  <rect x="788" y="332" width="12" height="12" fill="#ffe066" />
  
  <rect x="720" y="356" width="96" height="16" fill="#a07010" />

  
  <rect x="688" y="460" width="8" height="48" fill="#b8860b" />
  <rect x="696" y="460" width="8" height="8" fill="#b8860b" />
  <rect x="704" y="460" width="8" height="8" fill="#b8860b" />
  <rect x="712" y="460" width="8" height="48" fill="#b8860b" />
  <rect x="696" y="476" width="16" height="8" fill="#b8860b" />
  <rect x="728" y="460" width="8" height="32" fill="#b8860b" />
  <rect x="736" y="460" width="16" height="8" fill="#b8860b" />
  <rect x="752" y="468" width="8" height="16" fill="#b8860b" />
  <rect x="736" y="484" width="16" height="8" fill="#b8860b" />
  <rect x="728" y="492" width="8" height="16" fill="#b8860b" />

  
  
  <rect x="672" y="600" width="32" height="8" fill="#ffe066" />
  <rect x="700" y="608" width="8" height="16" fill="#ffe066" />
  <rect x="672" y="624" width="32" height="8" fill="#ffe066" />
  <rect x="672" y="632" width="8" height="16" fill="#ffe066" />
  <rect x="672" y="648" width="32" height="8" fill="#ffe066" />
  
  <rect x="716" y="600" width="32" height="8" fill="#ffe066" />
  <rect x="712" y="608" width="8" height="40" fill="#ffe066" />
  <rect x="744" y="608" width="8" height="40" fill="#ffe066" />
  <rect x="716" y="648" width="32" height="8" fill="#ffe066" />
  
  <rect x="764" y="600" width="32" height="8" fill="#ffe066" />
  <rect x="760" y="608" width="8" height="40" fill="#ffe066" />
  <rect x="792" y="608" width="8" height="40" fill="#ffe066" />
  <rect x="764" y="648" width="32" height="8" fill="#ffe066" />
  
  <rect x="812" y="600" width="32" height="8" fill="#ffe066" />
  <rect x="808" y="608" width="8" height="16" fill="#ffe066" />
  <rect x="840" y="608" width="8" height="16" fill="#ffe066" />
  <rect x="812" y="624" width="32" height="8" fill="#ffe066" />
  <rect x="808" y="632" width="8" height="16" fill="#ffe066" />
  <rect x="840" y="632" width="8" height="16" fill="#ffe066" />
  <rect x="812" y="648" width="32" height="8" fill="#ffe066" />

  
  <rect x="0" y="0" width="1536" height="12" fill="#ffcc00" />
  <rect x="0" y="1012" width="1536" height="12" fill="#ffcc00" />
  <rect x="0" y="0" width="12" height="1024" fill="#ffcc00" />
  <rect x="1524" y="0" width="12" height="1024" fill="#ffcc00" />

  
  <rect x="12" y="12" width="1512" height="8" fill="#ff6600" opacity="0.8" />
  <rect x="12" y="1004" width="1512" height="8" fill="#ff6600" opacity="0.8" />
  <rect x="12" y="12" width="8" height="1000" fill="#ff6600" opacity="0.8" />
  <rect x="1516" y="12" width="8" height="1000" fill="#ff6600" opacity="0.8" />

  
  <rect x="32" y="32" width="8" height="8" fill="#ffcc00" opacity="0.5" />
  <rect x="1496" y="32" width="8" height="8" fill="#ffcc00" opacity="0.5" />
  <rect x="32" y="984" width="8" height="8" fill="#ffcc00" opacity="0.5" />
  <rect x="1496" y="984" width="8" height="8" fill="#ffcc00" opacity="0.5" />

  
  <text x="768" y="72" font-family="monospace" font-size="28" font-weight="bold" fill="#00ffcc" text-anchor="middle" letter-spacing="8" filter="url(#glow)" opacity="0.9">✦ SWEDISH ACADEMY ANNOUNCEMENT ✦</text>

  
  <text x="768" y="160" font-family="monospace" font-size="72" font-weight="bold" fill="#ffcc00" text-anchor="middle" letter-spacing="6" filter="url(#goldGlow)" opacity="0.95">NOBEL PRIZE</text>

  
  <text x="768" y="228" font-family="monospace" font-size="40" font-weight="bold" fill="#ff9900" text-anchor="middle" letter-spacing="10" filter="url(#glow)">IN LITERATURE</text>

  
  <text x="768" y="710" font-family="monospace" font-size="52" font-weight="bold" fill="#ffffff" text-anchor="middle" letter-spacing="2" filter="url(#glow)">Jean-Marie Gustave</text>
  <text x="768" y="774" font-family="monospace" font-size="52" font-weight="bold" fill="#ffffff" text-anchor="middle" letter-spacing="2" filter="url(#glow)">Le Clézio</text>

  
  <rect x="240" y="796" width="1056" height="6" fill="#ffcc00" opacity="0.6" />

  <text x="768" y="848" font-family="monospace" font-size="32" font-weight="bold" fill="#00ffcc" text-anchor="middle" letter-spacing="4" filter="url(#glow)">107TH LAUREATE · OCTOBER 9, 2008</text>

  <text x="768" y="900" font-family="monospace" font-size="24" fill="#ff88ff" text-anchor="middle" letter-spacing="3" opacity="0.9">"EXPLORER OF HUMANITY BEYOND REIGNING CIVILIZATION"</text>

  
  <rect x="240" y="930" width="1056" height="4" fill="#ff6600" opacity="0.5" />

  <text x="400" y="972" font-family="monospace" font-size="22" font-weight="bold" fill="#ffcc00" text-anchor="middle" letter-spacing="2" opacity="0.9">BORN: NICE 1940</text>

  <text x="768" y="972" font-family="monospace" font-size="22" font-weight="bold" fill="#ffcc00" text-anchor="middle" letter-spacing="2" opacity="0.9">PRIZE: 10M SEK</text>

  <text x="1136" y="972" font-family="monospace" font-size="22" font-weight="bold" fill="#ffcc00" text-anchor="middle" letter-spacing="2" opacity="0.9">LANG: FRANÇAIS</text>

  
  <rect x="600" y="400" width="12" height="12" fill="#ffe066" opacity="0.8" filter="url(#glow)" />
  <rect x="924" y="380" width="12" height="12" fill="#ffe066" opacity="0.8" filter="url(#glow)" />
  <rect x="612" y="540" width="8" height="8" fill="#ffffff" opacity="0.6" filter="url(#glow)" />
  <rect x="920" y="556" width="8" height="8" fill="#ffffff" opacity="0.6" filter="url(#glow)" />
  <rect x="588" y="468" width="8" height="8" fill="#00ffff" opacity="0.7" filter="url(#glow)" />
  <rect x="940" y="450" width="8" height="8" fill="#00ffff" opacity="0.7" filter="url(#glow)" />

  
  
  <rect x="290" y="340" width="8" height="120" fill="#ffe0a0" />
  <rect x="282" y="348" width="8" height="104" fill="#f0c060" />
  
  <rect x="290" y="452" width="8" height="8" fill="#ccaa44" />
  <rect x="298" y="460" width="8" height="16" fill="#998822" />
  
  <rect x="298" y="340" width="8" height="8" fill="#f8f0d8" />
  <rect x="306" y="348" width="8" height="8" fill="#f8f0d8" />
  <rect x="314" y="356" width="8" height="8" fill="#f0e8cc" />
  <rect x="322" y="364" width="8" height="8" fill="#f0e8cc" />
  <rect x="330" y="372" width="8" height="8" fill="#e8dfc0" />
  <rect x="298" y="356" width="8" height="8" fill="#f8f0d8" />
  <rect x="306" y="364" width="8" height="8" fill="#f8f0d8" />
  <rect x="314" y="372" width="8" height="8" fill="#f0e8cc" />
  <rect x="322" y="380" width="8" height="8" fill="#e8dfc0" />
  <rect x="298" y="372" width="8" height="8" fill="#f8f0d8" />
  <rect x="306" y="380" width="8" height="8" fill="#f0e8cc" />
  <rect x="314" y="388" width="8" height="8" fill="#f0e8cc" />
  
  <rect x="274" y="340" width="8" height="8" fill="#f8f0d8" />
  <rect x="266" y="348" width="8" height="8" fill="#f8f0d8" />
  <rect x="258" y="356" width="8" height="8" fill="#f0e8cc" />
  <rect x="274" y="356" width="8" height="8" fill="#f8f0d8" />
  <rect x="266" y="364" width="8" height="8" fill="#f0e8cc" />
  <rect x="274" y="372" width="8" height="8" fill="#f0e8cc" />
  <rect x="266" y="380" width="8" height="8" fill="#e8dfc0" />

  
  <rect x="1238" y="340" width="8" height="120" fill="#ffe0a0" />
  <rect x="1246" y="348" width="8" height="104" fill="#f0c060" />
  <rect x="1238" y="452" width="8" height="8" fill="#ccaa44" />
  <rect x="1230" y="460" width="8" height="16" fill="#998822" />
  <rect x="1230" y="340" width="8" height="8" fill="#f8f0d8" />
  <rect x="1222" y="348" width="8" height="8" fill="#f8f0d8" />
  <rect x="1214" y="356" width="8" height="8" fill="#f0e8cc" />
  <rect x="1206" y="364" width="8" height="8" fill="#f0e8cc" />
  <rect x="1198" y="372" width="8" height="8" fill="#e8dfc0" />
  <rect x="1230" y="356" width="8" height="8" fill="#f8f0d8" />
  <rect x="1222" y="364" width="8" height="8" fill="#f8f0d8" />
  <rect x="1214" y="372" width="8" height="8" fill="#f0e8cc" />
  <rect x="1206" y="380" width="8" height="8" fill="#e8dfc0" />
  <rect x="1254" y="340" width="8" height="8" fill="#f8f0d8" />
  <rect x="1262" y="348" width="8" height="8" fill="#f8f0d8" />
  <rect x="1270" y="356" width="8" height="8" fill="#f0e8cc" />
  <rect x="1254" y="356" width="8" height="8" fill="#f8f0d8" />
  <rect x="1262" y="364" width="8" height="8" fill="#f0e8cc" />
  <rect x="1254" y="372" width="8" height="8" fill="#f0e8cc" />

</svg>