<svg xmlns="http://www.w3.org/2000/svg" viewBox="0 0 1536 1024" role="img" width="1536" height="1024">
  <title>Metallica – Death Magnetic: Retro Pixel Art Banner</title>
  
  
  <rect width="1536" height="1024" fill="#0a0a0f" />
  
  
  <defs>
    <pattern id="scanlines" x="0" y="0" width="4" height="4" patternUnits="userSpaceOnUse">
      <rect x="0" y="0" width="4" height="2" fill="rgba(0,0,0,0.3)" />
    </pattern>
    <radialGradient id="crtGlow" cx="50%" cy="50%" r="60%">
      <stop offset="0%" stop-color="#1a0a2e" />
      <stop offset="100%" stop-color="#000005" />
    </radialGradient>
    <radialGradient id="magnetGlow" cx="50%" cy="50%" r="50%">
      <stop offset="0%" stop-color="#ff2200" stop-opacity="0.8" />
      <stop offset="100%" stop-color="#ff2200" stop-opacity="0" />
    </radialGradient>
    <filter id="glow">
      <feGaussianBlur stdDeviation="6" result="blur" />
      <feMerge><feMergeNode in="blur" /><feMergeNode in="SourceGraphic" /></feMerge>
    </filter>
    <filter id="softglow">
      <feGaussianBlur stdDeviation="12" result="blur" />
      <feMerge><feMergeNode in="blur" /><feMergeNode in="SourceGraphic" /></feMerge>
    </filter>
  </defs>
  
  <rect width="1536" height="1024" fill="url(#crtGlow)" />
  
  
  <g fill="#ffffff" opacity="0.4">
    <rect x="80" y="60" width="4" height="4" />
    <rect x="200" y="120" width="4" height="4" />
    <rect x="340" y="40" width="4" height="4" />
    <rect x="500" y="90" width="4" height="4" />
    <rect x="1100" y="50" width="4" height="4" />
    <rect x="1300" y="110" width="4" height="4" />
    <rect x="1450" y="60" width="4" height="4" />
    <rect x="60" y="900" width="4" height="4" />
    <rect x="150" y="960" width="4" height="4" />
    <rect x="1400" y="940" width="4" height="4" />
    <rect x="1480" y="880" width="4" height="4" />
    <rect x="700" y="30" width="4" height="4" />
    <rect x="900" y="70" width="4" height="4" />
    <rect x="440" y="970" width="4" height="4" />
    <rect x="1100" y="990" width="4" height="4" />
  </g>
  
  
  
  <g opacity="0.7">
    
    <g fill="#ff4400">
      
      <rect x="300" y="300" width="8" height="8" fill="#ff2200" opacity="0.9" />
      <rect x="280" y="260" width="8" height="8" fill="#ff2200" opacity="0.8" />
      <rect x="240" y="230" width="8" height="8" fill="#ff2200" opacity="0.7" />
      <rect x="200" y="220" width="8" height="8" fill="#ff2200" opacity="0.6" />
      <rect x="160" y="230" width="8" height="8" fill="#ff2200" opacity="0.5" />
      <rect x="130" y="260" width="8" height="8" fill="#ff2200" opacity="0.4" />
      <rect x="120" y="300" width="8" height="8" fill="#ff2200" opacity="0.3" />
      
      <rect x="300" y="380" width="8" height="8" fill="#ff2200" opacity="0.9" />
      <rect x="280" y="420" width="8" height="8" fill="#ff2200" opacity="0.8" />
      <rect x="240" y="450" width="8" height="8" fill="#ff2200" opacity="0.7" />
      <rect x="200" y="460" width="8" height="8" fill="#ff2200" opacity="0.6" />
      <rect x="160" y="450" width="8" height="8" fill="#ff2200" opacity="0.5" />
      <rect x="130" y="420" width="8" height="8" fill="#ff2200" opacity="0.4" />
      <rect x="120" y="380" width="8" height="8" fill="#ff2200" opacity="0.3" />
      
      
      <rect x="340" y="260" width="8" height="8" fill="#cc1100" opacity="0.7" />
      <rect x="320" y="210" width="8" height="8" fill="#cc1100" opacity="0.6" />
      <rect x="280" y="170" width="8" height="8" fill="#cc1100" opacity="0.55" />
      <rect x="230" y="150" width="8" height="8" fill="#cc1100" opacity="0.5" />
      <rect x="180" y="150" width="8" height="8" fill="#cc1100" opacity="0.45" />
      <rect x="130" y="170" width="8" height="8" fill="#cc1100" opacity="0.4" />
      <rect x="90" y="210" width="8" height="8" fill="#cc1100" opacity="0.35" />
      <rect x="70" y="260" width="8" height="8" fill="#cc1100" opacity="0.3" />
      <rect x="70" y="420" width="8" height="8" fill="#cc1100" opacity="0.3" />
      <rect x="90" y="470" width="8" height="8" fill="#cc1100" opacity="0.35" />
      <rect x="130" y="510" width="8" height="8" fill="#cc1100" opacity="0.4" />
      <rect x="180" y="530" width="8" height="8" fill="#cc1100" opacity="0.45" />
      <rect x="230" y="530" width="8" height="8" fill="#cc1100" opacity="0.5" />
      <rect x="280" y="510" width="8" height="8" fill="#cc1100" opacity="0.55" />
      <rect x="320" y="470" width="8" height="8" fill="#cc1100" opacity="0.6" />
      <rect x="340" y="420" width="8" height="8" fill="#cc1100" opacity="0.7" />
    </g>
    
    
    <g fill="#ff4400">
      <rect x="1228" y="300" width="8" height="8" fill="#ff2200" opacity="0.9" />
      <rect x="1248" y="260" width="8" height="8" fill="#ff2200" opacity="0.8" />
      <rect x="1288" y="230" width="8" height="8" fill="#ff2200" opacity="0.7" />
      <rect x="1328" y="220" width="8" height="8" fill="#ff2200" opacity="0.6" />
      <rect x="1368" y="230" width="8" height="8" fill="#ff2200" opacity="0.5" />
      <rect x="1398" y="260" width="8" height="8" fill="#ff2200" opacity="0.4" />
      <rect x="1408" y="300" width="8" height="8" fill="#ff2200" opacity="0.3" />
      <rect x="1228" y="380" width="8" height="8" fill="#ff2200" opacity="0.9" />
      <rect x="1248" y="420" width="8" height="8" fill="#ff2200" opacity="0.8" />
      <rect x="1288" y="450" width="8" height="8" fill="#ff2200" opacity="0.7" />
      <rect x="1328" y="460" width="8" height="8" fill="#ff2200" opacity="0.6" />
      <rect x="1368" y="450" width="8" height="8" fill="#ff2200" opacity="0.5" />
      <rect x="1398" y="420" width="8" height="8" fill="#ff2200" opacity="0.4" />
      <rect x="1408" y="380" width="8" height="8" fill="#ff2200" opacity="0.3" />
      
      <rect x="1188" y="260" width="8" height="8" fill="#cc1100" opacity="0.7" />
      <rect x="1208" y="210" width="8" height="8" fill="#cc1100" opacity="0.6" />
      <rect x="1248" y="170" width="8" height="8" fill="#cc1100" opacity="0.55" />
      <rect x="1298" y="150" width="8" height="8" fill="#cc1100" opacity="0.5" />
      <rect x="1348" y="150" width="8" height="8" fill="#cc1100" opacity="0.45" />
      <rect x="1398" y="170" width="8" height="8" fill="#cc1100" opacity="0.4" />
      <rect x="1438" y="210" width="8" height="8" fill="#cc1100" opacity="0.35" />
      <rect x="1458" y="260" width="8" height="8" fill="#cc1100" opacity="0.3" />
      <rect x="1458" y="420" width="8" height="8" fill="#cc1100" opacity="0.3" />
      <rect x="1438" y="470" width="8" height="8" fill="#cc1100" opacity="0.35" />
      <rect x="1398" y="510" width="8" height="8" fill="#cc1100" opacity="0.4" />
      <rect x="1348" y="530" width="8" height="8" fill="#cc1100" opacity="0.45" />
      <rect x="1298" y="530" width="8" height="8" fill="#cc1100" opacity="0.5" />
      <rect x="1248" y="510" width="8" height="8" fill="#cc1100" opacity="0.55" />
      <rect x="1208" y="470" width="8" height="8" fill="#cc1100" opacity="0.6" />
      <rect x="1188" y="420" width="8" height="8" fill="#cc1100" opacity="0.7" />
    </g>
  </g>
  
  
  
  <g filter="url(#glow)">
    
    <rect x="560" y="180" width="80" height="480" fill="#cc0000" />
    <rect x="560" y="180" width="80" height="480" fill="#ee1111" opacity="0.5" />
    
    <rect x="568" y="188" width="16" height="460" fill="#ff4444" opacity="0.4" />
    
    <rect x="616" y="188" width="16" height="460" fill="#880000" opacity="0.6" />
    
    
    <rect x="896" y="180" width="80" height="480" fill="#cc0000" />
    <rect x="896" y="180" width="80" height="480" fill="#ee1111" opacity="0.5" />
    
    <rect x="904" y="188" width="16" height="460" fill="#ff4444" opacity="0.4" />
    
    <rect x="952" y="188" width="16" height="460" fill="#880000" opacity="0.6" />
    
    
    <rect x="560" y="180" width="416" height="80" fill="#cc0000" />
    <rect x="560" y="180" width="416" height="80" fill="#ee1111" opacity="0.5" />
    
    <rect x="568" y="188" width="400" height="16" fill="#ff4444" opacity="0.4" />
    
    <rect x="568" y="240" width="400" height="16" fill="#880000" opacity="0.5" />
    
    
    <rect x="580" y="200" width="16" height="16" fill="#ff6666" opacity="0.6" />
    <rect x="940" y="200" width="16" height="16" fill="#ff6666" opacity="0.6" />
    <rect x="580" y="620" width="16" height="16" fill="#ff6666" opacity="0.6" />
    <rect x="940" y="620" width="16" height="16" fill="#ff6666" opacity="0.6" />
  </g>
  
  
  
  <rect x="560" y="660" width="80" height="56" fill="#0044ff" />
  <rect x="560" y="660" width="80" height="56" fill="#2266ff" opacity="0.5" />
  
  <rect x="572" y="668" width="8" height="40" fill="#88aaff" />
  <rect x="580" y="676" width="8" height="8" fill="#88aaff" />
  <rect x="588" y="684" width="8" height="8" fill="#88aaff" />
  <rect x="596" y="668" width="8" height="40" fill="#88aaff" />
  
  
  <rect x="896" y="660" width="80" height="56" fill="#cc0000" />
  <rect x="896" y="660" width="80" height="56" fill="#ff2222" opacity="0.5" />
  
  <rect x="908" y="668" width="40" height="8" fill="#ffaaaa" />
  <rect x="908" y="676" width="8" height="16" fill="#ffaaaa" />
  <rect x="908" y="692" width="40" height="8" fill="#ffaaaa" />
  <rect x="940" y="700" width="8" height="16" fill="#ffaaaa" />
  <rect x="908" y="716" width="40" height="8" fill="#ffaaaa" />
  
  
  <ellipse cx="768" cy="520" rx="160" ry="100" fill="url(#magnetGlow)" opacity="0.6" />
  <ellipse cx="768" cy="520" rx="80" ry="50" fill="#ff3300" opacity="0.3" />
  
  
  <g fill="#ffcc00" filter="url(#glow)">
    <rect x="648" y="500" width="8" height="8" />
    <rect x="664" y="516" width="8" height="8" />
    <rect x="680" y="504" width="8" height="8" />
    <rect x="696" y="520" width="8" height="8" />
    <rect x="712" y="508" width="8" height="8" />
    <rect x="728" y="524" width="8" height="8" />
    <rect x="744" y="512" width="8" height="8" />
    <rect x="760" y="528" width="8" height="8" />
    <rect x="776" y="516" width="8" height="8" />
    <rect x="792" y="500" width="8" height="8" />
    <rect x="808" y="516" width="8" height="8" />
    <rect x="824" y="504" width="8" height="8" />
    <rect x="840" y="520" width="8" height="8" />
    <rect x="856" y="508" width="8" height="8" />
    <rect x="872" y="524" width="8" height="8" />
  </g>
  <g fill="#ffffff" opacity="0.8" filter="url(#glow)">
    <rect x="656" y="508" width="4" height="4" />
    <rect x="688" y="496" width="4" height="4" />
    <rect x="720" y="512" width="4" height="4" />
    <rect x="752" y="500" width="4" height="4" />
    <rect x="784" y="516" width="4" height="4" />
    <rect x="816" y="504" width="4" height="4" />
    <rect x="848" y="520" width="4" height="4" />
    <rect x="864" y="508" width="4" height="4" />
  </g>
  
  
  
  <g transform="translate(180, 680)" fill="#aa0000" opacity="0.8">
    <rect x="0" y="0" width="8" height="8" />
    <rect x="8" y="0" width="8" height="8" />
    <rect x="16" y="0" width="8" height="8" />
    <rect x="24" y="0" width="8" height="8" />
    <rect x="32" y="0" width="8" height="8" />
    <rect x="0" y="8" width="8" height="8" />
    <rect x="32" y="8" width="8" height="8" />
    <rect x="0" y="16" width="8" height="8" />
    <rect x="32" y="16" width="8" height="8" />
    <rect x="0" y="24" width="8" height="8" />
    <rect x="8" y="24" width="8" height="8" />
    <rect x="16" y="24" width="8" height="8" />
    <rect x="24" y="24" width="8" height="8" />
    <rect x="32" y="24" width="8" height="8" />
    <rect x="8" y="32" width="8" height="8" />
    <rect x="24" y="32" width="8" height="8" />
    <rect x="8" y="40" width="8" height="8" />
    <rect x="24" y="40" width="8" height="8" />
    
    <rect x="8" y="8" width="8" height="8" fill="#000000" />
    <rect x="24" y="8" width="8" height="8" fill="#000000" />
    
    <rect x="16" y="16" width="8" height="8" fill="#440000" />
    
    <rect x="12" y="32" width="4" height="8" fill="#000000" />
    <rect x="24" y="32" width="4" height="8" fill="#000000" />
  </g>
  
  
  <g transform="translate(1316, 680)" fill="#aa0000" opacity="0.8">
    <rect x="0" y="0" width="8" height="8" />
    <rect x="8" y="0" width="8" height="8" />
    <rect x="16" y="0" width="8" height="8" />
    <rect x="24" y="0" width="8" height="8" />
    <rect x="32" y="0" width="8" height="8" />
    <rect x="0" y="8" width="8" height="8" />
    <rect x="32" y="8" width="8" height="8" />
    <rect x="0" y="16" width="8" height="8" />
    <rect x="32" y="16" width="8" height="8" />
    <rect x="0" y="24" width="8" height="8" />
    <rect x="8" y="24" width="8" height="8" />
    <rect x="16" y="24" width="8" height="8" />
    <rect x="24" y="24" width="8" height="8" />
    <rect x="32" y="24" width="8" height="8" />
    <rect x="8" y="32" width="8" height="8" />
    <rect x="24" y="32" width="8" height="8" />
    <rect x="8" y="40" width="8" height="8" />
    <rect x="24" y="40" width="8" height="8" />
    <rect x="8" y="8" width="8" height="8" fill="#000000" />
    <rect x="24" y="8" width="8" height="8" fill="#000000" />
    <rect x="16" y="16" width="8" height="8" fill="#440000" />
    <rect x="12" y="32" width="4" height="8" fill="#000000" />
    <rect x="24" y="32" width="4" height="8" fill="#000000" />
  </g>
  
  
  
  <g transform="translate(60, 400)" fill="#ffaa00" opacity="0.5">
    <rect x="0" y="80" width="8" height="48" />
    <rect x="8" y="64" width="16" height="64" />
    <rect x="24" y="56" width="8" height="72" />
    <rect x="32" y="64" width="8" height="64" />
    <rect x="40" y="72" width="8" height="48" />
    
    <rect x="4" y="0" width="8" height="56" />
    <rect x="0" y="4" width="16" height="8" />
    <rect x="0" y="20" width="16" height="8" />
    <rect x="0" y="36" width="16" height="8" />
  </g>
  
  
  <g transform="translate(1420, 400)" fill="#ffaa00" opacity="0.5">
    <rect x="0" y="80" width="8" height="48" />
    <rect x="8" y="64" width="16" height="64" />
    <rect x="24" y="56" width="8" height="72" />
    <rect x="32" y="64" width="8" height="64" />
    <rect x="40" y="72" width="8" height="48" />
    <rect x="4" y="0" width="8" height="56" />
    <rect x="0" y="4" width="16" height="8" />
    <rect x="0" y="20" width="16" height="8" />
    <rect x="0" y="36" width="16" height="8" />
  </g>
  
  
  <rect x="200" y="780" width="1136" height="200" fill="#000000" opacity="0.7" />
  <rect x="200" y="780" width="1136" height="4" fill="#ff2200" />
  <rect x="200" y="976" width="1136" height="4" fill="#ff2200" />
  
  
  <rect x="200" y="780" width="4" height="200" fill="#ff2200" />
  <rect x="1332" y="780" width="4" height="200" fill="#ff2200" />
  
  
  <text x="768" y="858" font-family="'Courier New', Courier, monospace" font-size="88" font-weight="bold" fill="#ff2200" text-anchor="middle" letter-spacing="12" filter="url(#glow)">METALLICA</text>
  
  
  <text x="768" y="940" font-family="'Courier New', Courier, monospace" font-size="52" font-weight="bold" fill="#ffcc00" text-anchor="middle" letter-spacing="8" filter="url(#glow)">DEATH MAGNETIC</text>
  
  
  <rect x="660" y="960" width="216" height="36" fill="#ff2200" opacity="0.15" />
  <text x="768" y="984" font-family="'Courier New', Courier, monospace" font-size="22" fill="#ff8866" text-anchor="middle" letter-spacing="4">2008 · NINTH STUDIO ALBUM</text>
  
  
  <rect width="1536" height="1024" fill="url(#scanlines)" opacity="0.15" />
  
  
  <defs>
    <radialGradient id="vignette" cx="50%" cy="50%" r="70%">
      <stop offset="60%" stop-color="transparent" />
      <stop offset="100%" stop-color="#000000" stop-opacity="0.7" />
    </radialGradient>
  </defs>
  <rect width="1536" height="1024" fill="url(#vignette)" />
</svg>