<svg xmlns="http://www.w3.org/2000/svg" viewBox="0 0 1536 1024" role="img" width="1536" height="1024">
  <title>Nepal Abolishes Its Monarchy and Becomes a Federal Democratic Republic — Retro Pixel Art Banner</title>

  <defs>
    
    <pattern id="scanlines" x="0" y="0" width="4" height="4" patternUnits="userSpaceOnUse">
      <rect x="0" y="0" width="4" height="2" fill="rgba(0,0,0,0.18)" />
    </pattern>
    
    <pattern id="pixgrid" x="0" y="0" width="8" height="8" patternUnits="userSpaceOnUse">
      <rect x="0" y="0" width="8" height="8" fill="none" stroke="rgba(0,255,80,0.04)" stroke-width="0.5" />
    </pattern>
    
    <radialGradient id="crtglow" cx="50%" cy="50%" r="70%">
      <stop offset="0%" stop-color="#0d2a0d" stop-opacity="1" />
      <stop offset="60%" stop-color="#081408" stop-opacity="1" />
      <stop offset="100%" stop-color="#020402" stop-opacity="1" />
    </radialGradient>
    
    <radialGradient id="snowglow" cx="50%" cy="0%" r="80%">
      <stop offset="0%" stop-color="#c8f0ff" stop-opacity="0.3" />
      <stop offset="100%" stop-color="#c8f0ff" stop-opacity="0" />
    </radialGradient>
    
    <radialGradient id="flagglow" cx="50%" cy="50%" r="50%">
      <stop offset="0%" stop-color="#ff3050" stop-opacity="0.5" />
      <stop offset="100%" stop-color="#ff3050" stop-opacity="0" />
    </radialGradient>
  </defs>

  
  <rect width="1536" height="1024" fill="url(#crtglow)" />
  <rect width="1536" height="1024" fill="url(#pixgrid)" />

  
  <rect x="60" y="40" width="4" height="4" fill="#a0ffb0" opacity="0.7" />
  <rect x="140" y="80" width="4" height="4" fill="#a0ffb0" opacity="0.5" />
  <rect x="220" y="30" width="4" height="4" fill="#ffffa0" opacity="0.6" />
  <rect x="310" y="70" width="4" height="4" fill="#a0ffb0" opacity="0.4" />
  <rect x="400" y="20" width="4" height="4" fill="#a0ffb0" opacity="0.7" />
  <rect x="480" y="55" width="4" height="4" fill="#ffffa0" opacity="0.5" />
  <rect x="560" y="35" width="4" height="4" fill="#a0ffb0" opacity="0.6" />
  <rect x="650" y="15" width="4" height="4" fill="#a0ffb0" opacity="0.4" />
  <rect x="720" y="60" width="4" height="4" fill="#ffffa0" opacity="0.7" />
  <rect x="820" y="25" width="4" height="4" fill="#a0ffb0" opacity="0.5" />
  <rect x="900" y="50" width="4" height="4" fill="#a0ffb0" opacity="0.6" />
  <rect x="980" y="15" width="4" height="4" fill="#ffffa0" opacity="0.4" />
  <rect x="1060" y="70" width="4" height="4" fill="#a0ffb0" opacity="0.7" />
  <rect x="1140" y="30" width="4" height="4" fill="#a0ffb0" opacity="0.5" />
  <rect x="1220" y="55" width="4" height="4" fill="#ffffa0" opacity="0.6" />
  <rect x="1300" y="20" width="4" height="4" fill="#a0ffb0" opacity="0.4" />
  <rect x="1400" y="45" width="4" height="4" fill="#a0ffb0" opacity="0.7" />
  <rect x="1480" y="80" width="4" height="4" fill="#ffffa0" opacity="0.5" />
  <rect x="100" y="120" width="4" height="4" fill="#a0ffb0" opacity="0.3" />
  <rect x="350" y="110" width="4" height="4" fill="#ffffa0" opacity="0.4" />
  <rect x="600" y="100" width="4" height="4" fill="#a0ffb0" opacity="0.3" />
  <rect x="850" y="115" width="4" height="4" fill="#a0ffb0" opacity="0.4" />
  <rect x="1100" y="95" width="4" height="4" fill="#ffffa0" opacity="0.3" />
  <rect x="1350" y="105" width="4" height="4" fill="#a0ffb0" opacity="0.4" />

  
  
  <polygon points="0,680 64,400 128,680" fill="#1a1a4a" />
  <polygon points="64,400 128,280 192,400" fill="#1a1a4a" />
  <polygon points="128,280 192,180 256,280" fill="#1a1a4a" />
  <polygon points="192,180 256,100 320,180" fill="#232360" />
  <polygon points="256,100 320,60 384,100" fill="#232360" />
  <polygon points="320,60 384,30 448,60" fill="#2a2a70" />
  <polygon points="384,30 440,10 496,30" fill="#2a2a70" />
  <polygon points="440,10 520,0 600,10" fill="#2e2e80" />
  <polygon points="520,0 640,50 760,0" fill="#2e2e80" />
  <polygon points="640,50 720,20 800,50" fill="#2a2a70" />
  <polygon points="720,20 800,0 880,20" fill="#2e2e80" />
  <polygon points="800,0 920,40 1040,0" fill="#2a2a70" />
  <polygon points="920,40 1000,15 1080,40" fill="#2e2e80" />
  <polygon points="1000,15 1100,0 1200,15" fill="#2a2a70" />
  <polygon points="1100,0 1220,50 1340,0" fill="#2e2e80" />
  <polygon points="1220,50 1300,20 1380,50" fill="#2a2a70" />
  <polygon points="1300,20 1400,0 1500,20" fill="#2e2e80" />
  <polygon points="1400,0 1536,60 1536,0" fill="#2a2a70" />
  
  <rect x="0" y="680" width="1536" height="344" fill="#0d1a0d" />

  
  <polygon points="0,900 80,600 160,900" fill="#0a2a0a" />
  <polygon points="80,600 180,450 280,600" fill="#0a2a0a" />
  <polygon points="180,450 300,320 420,450" fill="#0d300d" />
  <polygon points="300,320 440,200 580,320" fill="#0d300d" />
  <polygon points="440,200 560,140 680,200" fill="#103510" />
  <polygon points="560,140 680,80 800,140" fill="#103510" />
  <polygon points="680,80 800,50 920,80" fill="#0d300d" />
  <polygon points="800,50 920,30 1040,50" fill="#103510" />
  <polygon points="920,30 1060,80 1200,30" fill="#0d300d" />
  <polygon points="1060,80 1180,50 1300,80" fill="#103510" />
  <polygon points="1180,50 1320,100 1460,50" fill="#0d300d" />
  <polygon points="1320,100 1430,60 1536,100" fill="#103510" />
  <polygon points="1430,60 1536,30 1536,60" fill="#0d300d" />

  
  
  <rect x="432" y="200" width="8" height="8" fill="#e0f8ff" />
  <rect x="440" y="192" width="8" height="8" fill="#e0f8ff" />
  <rect x="448" y="184" width="8" height="8" fill="#e0f8ff" />
  <rect x="456" y="176" width="8" height="8" fill="#c8eeff" />
  <rect x="464" y="168" width="8" height="8" fill="#e0f8ff" />
  <rect x="472" y="160" width="8" height="8" fill="#e0f8ff" />
  <rect x="480" y="152" width="8" height="8" fill="#c8eeff" />
  <rect x="488" y="144" width="8" height="8" fill="#e0f8ff" />
  <rect x="496" y="136" width="8" height="8" fill="#e0f8ff" />
  <rect x="504" y="128" width="8" height="8" fill="#e0f8ff" />
  <rect x="512" y="136" width="8" height="8" fill="#c8eeff" />
  <rect x="520" y="144" width="8" height="8" fill="#e0f8ff" />
  <rect x="528" y="152" width="8" height="8" fill="#e0f8ff" />
  
  <rect x="792" y="56" width="8" height="8" fill="#e0f8ff" />
  <rect x="800" y="48" width="8" height="8" fill="#e0f8ff" />
  <rect x="808" y="40" width="8" height="8" fill="#c8eeff" />
  <rect x="816" y="32" width="8" height="8" fill="#e0f8ff" />
  <rect x="824" y="24" width="8" height="8" fill="#ffffff" />
  <rect x="832" y="32" width="8" height="8" fill="#e0f8ff" />
  <rect x="840" y="40" width="8" height="8" fill="#c8eeff" />
  <rect x="848" y="48" width="8" height="8" fill="#e0f8ff" />
  
  <rect x="1052" y="80" width="8" height="8" fill="#e0f8ff" />
  <rect x="1060" y="72" width="8" height="8" fill="#e0f8ff" />
  <rect x="1068" y="64" width="8" height="8" fill="#c8eeff" />
  <rect x="1076" y="56" width="8" height="8" fill="#e0f8ff" />
  <rect x="1084" y="64" width="8" height="8" fill="#e0f8ff" />
  <rect x="1092" y="72" width="8" height="8" fill="#c8eeff" />

  
  <rect x="0" y="0" width="1536" height="400" fill="url(#snowglow)" />

  
  <rect x="0" y="780" width="1536" height="244" fill="#061206" />
  
  <rect x="0" y="776" width="1536" height="8" fill="#0d2a0d" />
  <rect x="0" y="768" width="16" height="8" fill="#0d3a0d" />
  <rect x="32" y="768" width="16" height="8" fill="#0d3a0d" />
  <rect x="80" y="768" width="16" height="8" fill="#0d3a0d" />
  <rect x="120" y="760" width="8" height="8" fill="#0d3a0d" />
  <rect x="200" y="768" width="16" height="8" fill="#0d3a0d" />
  <rect x="300" y="768" width="16" height="8" fill="#0d3a0d" />
  <rect x="400" y="760" width="8" height="8" fill="#0d3a0d" />
  <rect x="500" y="768" width="16" height="8" fill="#0d3a0d" />
  <rect x="600" y="760" width="8" height="8" fill="#0d3a0d" />
  <rect x="700" y="768" width="16" height="8" fill="#0d3a0d" />
  <rect x="800" y="760" width="8" height="8" fill="#0d3a0d" />
  <rect x="900" y="768" width="16" height="8" fill="#0d3a0d" />
  <rect x="1000" y="760" width="8" height="8" fill="#0d3a0d" />
  <rect x="1100" y="768" width="16" height="8" fill="#0d3a0d" />
  <rect x="1200" y="760" width="8" height="8" fill="#0d3a0d" />
  <rect x="1300" y="768" width="16" height="8" fill="#0d3a0d" />
  <rect x="1400" y="760" width="8" height="8" fill="#0d3a0d" />
  <rect x="1500" y="768" width="16" height="8" fill="#0d3a0d" />

  
  
  <rect x="960" y="580" width="400" height="200" fill="#1a3a1a" />
  
  <rect x="960" y="572" width="400" height="8" fill="#0a5a0a" />
  
  <rect x="1000" y="548" width="320" height="24" fill="#0a5a0a" />
  <rect x="1040" y="524" width="240" height="24" fill="#0a5a0a" />
  <rect x="1080" y="500" width="160" height="24" fill="#0a5a0a" />
  <rect x="1120" y="476" width="80" height="24" fill="#0a5a0a" />
  <rect x="1140" y="460" width="40" height="16" fill="#0a6a0a" />
  
  <rect x="984" y="604" width="24" height="24" fill="#001400" />
  <rect x="984" y="604" width="24" height="24" fill="none" stroke="#00ff40" stroke-width="2" />
  <rect x="1024" y="604" width="24" height="24" fill="#001400" />
  <rect x="1024" y="604" width="24" height="24" fill="none" stroke="#00ff40" stroke-width="2" />
  <rect x="1200" y="604" width="24" height="24" fill="#001400" />
  <rect x="1200" y="604" width="24" height="24" fill="none" stroke="#00ff40" stroke-width="2" />
  <rect x="1240" y="604" width="24" height="24" fill="#001400" />
  <rect x="1240" y="604" width="24" height="24" fill="none" stroke="#00ff40" stroke-width="2" />
  <rect x="1300" y="604" width="24" height="24" fill="#001400" />
  <rect x="1300" y="604" width="24" height="24" fill="none" stroke="#00ff40" stroke-width="2" />
  
  <rect x="1128" y="700" width="64" height="80" fill="#001400" />
  <rect x="1128" y="700" width="64" height="80" fill="none" stroke="#00ff40" stroke-width="2" />
  
  <rect x="1000" y="620" width="16" height="160" fill="#0a4a0a" />
  <rect x="1040" y="620" width="16" height="160" fill="#0a4a0a" />
  <rect x="1264" y="620" width="16" height="160" fill="#0a4a0a" />
  <rect x="1304" y="620" width="16" height="160" fill="#0a4a0a" />
  
  <rect x="1156" y="380" width="8" height="100" fill="#2a5a2a" />
  
  <rect x="1064" y="668" width="8" height="8" fill="#00cc30" />
  <rect x="1072" y="668" width="8" height="8" fill="#00cc30" />
  <rect x="1080" y="668" width="8" height="8" fill="#00cc30" />
  <rect x="1088" y="668" width="8" height="8" fill="#00cc30" />
  <rect x="1096" y="668" width="8" height="8" fill="#00cc30" />
  <rect x="1104" y="668" width="8" height="8" fill="#00cc30" />

  
  
  <rect x="280" y="340" width="8" height="440" fill="#3a5a3a" />
  
  <ellipse cx="380" cy="560" rx="160" ry="120" fill="url(#flagglow)" />
  
  <polygon points="288,340 288,540 480,440" fill="#003893" />
  <polygon points="296,348 296,532 468,440" fill="#dc143c" />
  
  <polygon points="288,540 288,780 560,660" fill="#003893" />
  <polygon points="296,548 296,772 548,660" fill="#dc143c" />

  
  <rect x="336" y="396" width="8" height="8" fill="#ffffff" />
  <rect x="344" y="388" width="8" height="8" fill="#ffffff" />
  <rect x="352" y="388" width="8" height="8" fill="#ffffff" />
  <rect x="360" y="396" width="8" height="8" fill="#ffffff" />
  <rect x="360" y="404" width="8" height="8" fill="#ffffff" />
  <rect x="352" y="412" width="8" height="8" fill="#ffffff" />
  <rect x="344" y="412" width="8" height="8" fill="#ffffff" />
  <rect x="336" y="404" width="8" height="8" fill="#ffffff" />
  
  <rect x="344" y="396" width="8" height="8" fill="#dc143c" />
  <rect x="352" y="396" width="8" height="8" fill="#dc143c" />
  <rect x="344" y="404" width="8" height="8" fill="#dc143c" />
  <rect x="352" y="404" width="8" height="8" fill="#dc143c" />

  
  <rect x="344" y="612" width="8" height="8" fill="#ffffff" />
  <rect x="352" y="604" width="8" height="8" fill="#ffffff" />
  <rect x="360" y="604" width="8" height="8" fill="#ffffff" />
  <rect x="368" y="612" width="8" height="8" fill="#ffffff" />
  <rect x="376" y="620" width="8" height="8" fill="#ffffff" />
  <rect x="368" y="628" width="8" height="8" fill="#ffffff" />
  <rect x="360" y="636" width="8" height="8" fill="#ffffff" />
  <rect x="352" y="636" width="8" height="8" fill="#ffffff" />
  <rect x="344" y="628" width="8" height="8" fill="#ffffff" />
  <rect x="336" y="620" width="8" height="8" fill="#ffffff" />
  <rect x="344" y="620" width="8" height="8" fill="#ffffff" />
  <rect x="352" y="612" width="8" height="8" fill="#ffffff" />
  <rect x="360" y="612" width="8" height="8" fill="#ffffff" />
  <rect x="368" y="620" width="8" height="8" fill="#ffffff" />
  <rect x="360" y="628" width="8" height="8" fill="#ffffff" />
  <rect x="352" y="628" width="8" height="8" fill="#ffffff" />

  
  
  <rect x="700" y="500" width="200" height="80" fill="#2a2200" />
  <rect x="700" y="500" width="200" height="80" fill="none" stroke="#ffd700" stroke-width="4" />
  
  <rect x="704" y="504" width="192" height="72" fill="#1a1600" />
  <rect x="708" y="508" width="184" height="64" fill="#0d1000" />
  
  <rect x="724" y="520" width="16" height="16" fill="#ff2020" />
  <rect x="764" y="516" width="16" height="20" fill="#2040ff" />
  <rect x="820" y="520" width="16" height="16" fill="#20cc20" />
  <rect x="860" y="516" width="16" height="20" fill="#ff2020" />
  
  <rect x="700" y="460" width="32" height="40" fill="#2a2200" />
  <rect x="700" y="460" width="32" height="40" fill="none" stroke="#ffd700" stroke-width="4" />
  <rect x="732" y="448" width="8" height="12" fill="#ffd700" />
  <rect x="740" y="436" width="8" height="12" fill="#ffd700" />
  <rect x="748" y="448" width="8" height="12" fill="#ffd700" />

  <rect x="756" y="440" width="32" height="60" fill="#2a2200" />
  <rect x="756" y="440" width="32" height="60" fill="none" stroke="#ffd700" stroke-width="4" />
  <rect x="788" y="428" width="8" height="12" fill="#ffd700" />
  <rect x="796" y="416" width="8" height="12" fill="#ffd700" />
  <rect x="804" y="428" width="8" height="12" fill="#ffd700" />

  <rect x="812" y="448" width="32" height="52" fill="#2a2200" />
  <rect x="812" y="448" width="32" height="52" fill="none" stroke="#ffd700" stroke-width="4" />
  <rect x="844" y="436" width="8" height="12" fill="#ffd700" />
  <rect x="852" y="424" width="8" height="12" fill="#ffd700" />
  <rect x="860" y="436" width="8" height="12" fill="#ffd700" />

  <rect x="868" y="460" width="32" height="40" fill="#2a2200" />
  <rect x="868" y="460" width="32" height="40" fill="none" stroke="#ffd700" stroke-width="4" />
  <rect x="900" y="448" width="8" height="12" fill="#ffd700" />

  
  
  <rect x="688" y="424" width="16" height="16" fill="#ff0020" opacity="0.95" />
  <rect x="704" y="440" width="16" height="16" fill="#ff0020" opacity="0.95" />
  <rect x="720" y="456" width="16" height="16" fill="#ff0020" opacity="0.95" />
  <rect x="736" y="472" width="16" height="16" fill="#ff0020" opacity="0.95" />
  <rect x="752" y="488" width="16" height="16" fill="#ff0020" opacity="0.95" />
  <rect x="768" y="504" width="16" height="16" fill="#ff0020" opacity="0.95" />
  <rect x="784" y="520" width="16" height="16" fill="#ff0020" opacity="0.95" />
  <rect x="800" y="536" width="16" height="16" fill="#ff0020" opacity="0.95" />
  <rect x="816" y="552" width="16" height="16" fill="#ff0020" opacity="0.95" />
  <rect x="832" y="568" width="16" height="16" fill="#ff0020" opacity="0.95" />
  <rect x="848" y="584" width="16" height="16" fill="#ff0020" opacity="0.95" />
  <rect x="864" y="600" width="16" height="16" fill="#ff0020" opacity="0.95" />
  <rect x="880" y="616" width="16" height="16" fill="#ff0020" opacity="0.95" />
  
  <rect x="880" y="424" width="16" height="16" fill="#ff0020" opacity="0.95" />
  <rect x="864" y="440" width="16" height="16" fill="#ff0020" opacity="0.95" />
  <rect x="848" y="456" width="16" height="16" fill="#ff0020" opacity="0.95" />
  <rect x="832" y="472" width="16" height="16" fill="#ff0020" opacity="0.95" />
  <rect x="816" y="488" width="16" height="16" fill="#ff0020" opacity="0.95" />
  <rect x="800" y="504" width="16" height="16" fill="#ff0020" opacity="0.95" />
  <rect x="784" y="520" width="16" height="16" fill="#ff0020" opacity="0.95" />
  <rect x="768" y="536" width="16" height="16" fill="#ff0020" opacity="0.95" />
  <rect x="752" y="552" width="16" height="16" fill="#ff0020" opacity="0.95" />
  <rect x="736" y="568" width="16" height="16" fill="#ff0020" opacity="0.95" />
  <rect x="720" y="584" width="16" height="16" fill="#ff0020" opacity="0.95" />
  <rect x="704" y="600" width="16" height="16" fill="#ff0020" opacity="0.95" />
  <rect x="688" y="616" width="16" height="16" fill="#ff0020" opacity="0.95" />

  
  <text x="784" y="660" font-family="monospace, 'Courier New'" font-size="18" fill="#ff4060" text-anchor="middle" letter-spacing="2" font-weight="bold">240-YEAR DYNASTY ENDED</text>

  
  <text x="784" y="690" font-family="monospace, 'Courier New'" font-size="16" fill="#00cc40" text-anchor="middle" letter-spacing="3">MAY 28, 2008</text>

  
  
  <rect x="1050" y="800" width="420" height="140" fill="#001a00" />
  <rect x="1050" y="800" width="420" height="140" fill="none" stroke="#00ff40" stroke-width="4" />
  <rect x="1054" y="804" width="412" height="132" fill="none" stroke="#005500" stroke-width="2" />
  
  <text x="1070" y="840" font-family="monospace, 'Courier New'" font-size="22" fill="#00ff40" font-weight="bold">YES: 560</text>
  <rect x="1070" y="848" width="320" height="12" fill="#003300" />
  <rect x="1070" y="848" width="316" height="12" fill="#00cc30" />
  
  <text x="1070" y="890" font-family="monospace, 'Courier New'" font-size="22" fill="#ff4040" font-weight="bold">NO:    4</text>
  <rect x="1070" y="898" width="320" height="12" fill="#300000" />
  <rect x="1070" y="898" width="4" height="12" fill="#cc2020" />
  
  <text x="1070" y="930" font-family="monospace, 'Courier New'" font-size="16" fill="#80ff80">OF 564 MEMBERS PRESENT</text>

  
  
  <rect x="620" y="720" width="16" height="16" fill="#00aa30" />
  <rect x="616" y="736" width="24" height="32" fill="#00aa30" />
  <rect x="612" y="768" width="12" height="16" fill="#00aa30" />
  <rect x="628" y="768" width="12" height="16" fill="#00aa30" />
  
  <rect x="660" y="716" width="16" height="16" fill="#cc3000" />
  <rect x="656" y="732" width="24" height="32" fill="#cc3000" />
  <rect x="652" y="764" width="12" height="16" fill="#cc3000" />
  <rect x="668" y="764" width="12" height="16" fill="#cc3000" />
  
  <rect x="700" y="712" width="16" height="16" fill="#00aa30" />
  <rect x="696" y="728" width="24" height="32" fill="#00aa30" />
  <rect x="692" y="764" width="12" height="16" fill="#00aa30" />
  <rect x="708" y="764" width="12" height="16" fill="#00aa30" />
  
  <rect x="720" y="716" width="8" height="24" fill="#00aa30" />
  
  <rect x="738" y="718" width="16" height="16" fill="#cc3000" />
  <rect x="734" y="734" width="24" height="32" fill="#cc3000" />
  <rect x="730" y="766" width="12" height="16" fill="#cc3000" />
  <rect x="746" y="766" width="12" height="16" fill="#cc3000" />

  
  <rect x="580" y="370" width="380" height="64" fill="#001a00" opacity="0.85" />
  <rect x="580" y="370" width="380" height="64" fill="none" stroke="#00ff40" stroke-width="3" />
  <text x="770" y="415" font-family="monospace, 'Courier New'" font-size="40" fill="#00ff40" text-anchor="middle" font-weight="bold" letter-spacing="4">REPUBLIC!</text>

  
  <rect x="64" y="780" width="200" height="60" fill="#001400" />
  <rect x="64" y="780" width="200" height="60" fill="none" stroke="#ffd700" stroke-width="3" />
  <text x="164" y="805" font-family="monospace, 'Courier New'" font-size="14" fill="#ffd700" text-anchor="middle" font-weight="bold">VOTE: 560/564</text>
  <text x="164" y="828" font-family="monospace, 'Courier New'" font-size="13" fill="#00ff40" text-anchor="middle">FOR REPUBLIC</text>

  
  
  <rect x="0" y="860" width="1536" height="164" fill="rgba(0,10,0,0.88)" />
  <rect x="0" y="858" width="1536" height="4" fill="#00ff40" opacity="0.5" />

  
  <text x="768" y="910" font-family="monospace, 'Courier New', monospace" font-size="52" font-weight="bold" fill="#00ff80" text-anchor="middle" letter-spacing="2">NEPAL ABOLISHES MONARCHY</text>
  
  <text x="768" y="972" font-family="monospace, 'Courier New', monospace" font-size="42" font-weight="bold" fill="#ffd700" text-anchor="middle" letter-spacing="3">BECOMES FEDERAL DEMOCRATIC REPUBLIC</text>

  
  <radialGradient id="vignette" cx="50%" cy="50%" r="75%">
    <stop offset="60%" stop-color="rgba(0,0,0,0)" />
    <stop offset="100%" stop-color="rgba(0,0,0,0.7)" />
  </radialGradient>
  <rect width="1536" height="1024" fill="url(#vignette)" />

  
  <rect width="1536" height="1024" fill="url(#scanlines)" opacity="0.4" />

  
  <rect x="0" y="0" width="1536" height="1024" fill="none" stroke="#00ff40" stroke-width="6" opacity="0.15" />
  <rect x="8" y="8" width="1520" height="1008" fill="none" stroke="#00ff40" stroke-width="2" opacity="0.08" />
</svg>