<svg xmlns="http://www.w3.org/2000/svg" viewBox="0 0 1536 1024" role="img" width="1536" height="1024">
  <title>The Year 2008 — Knowledge Index: Retro Pixel Art Banner</title>
  <defs>
    <radialGradient id="crt" cx="50%" cy="50%" r="70%">
      <stop offset="0%" stop-color="#1a0a2e" />
      <stop offset="100%" stop-color="#050008" />
    </radialGradient>
    <radialGradient id="glow" cx="50%" cy="50%" r="50%">
      <stop offset="0%" stop-color="#00ffcc" stop-opacity="0.15" />
      <stop offset="100%" stop-color="#00ffcc" stop-opacity="0" />
    </radialGradient>
    <filter id="scanline" x="0" y="0" width="100%" height="100%">
      <feTurbulence type="fractalNoise" baseFrequency="0 0.5" numOctaves="1" result="noise" />
      <feColorMatrix type="saturate" values="0" in="noise" result="grey" />
      <feBlend in="SourceGraphic" in2="grey" mode="multiply" />
    </filter>
  </defs>

  
  <rect width="1536" height="1024" fill="url(#crt)" />
  
  <rect width="1536" height="1024" fill="url(#glow)" />

  
  <g opacity="0.08">
    <rect x="0" y="0" width="1536" height="2" fill="#ffffff" />
    <rect x="0" y="4" width="1536" height="2" fill="#ffffff" />
    <rect x="0" y="8" width="1536" height="2" fill="#ffffff" />
    <rect x="0" y="12" width="1536" height="2" fill="#ffffff" />
    <rect x="0" y="16" width="1536" height="2" fill="#ffffff" />
    <rect x="0" y="20" width="1536" height="2" fill="#ffffff" />
    <rect x="0" y="24" width="1536" height="2" fill="#ffffff" />
    <rect x="0" y="28" width="1536" height="2" fill="#ffffff" />
    <rect x="0" y="32" width="1536" height="2" fill="#ffffff" />
    <rect x="0" y="36" width="1536" height="2" fill="#ffffff" />
    <rect x="0" y="40" width="1536" height="2" fill="#ffffff" />
    <rect x="0" y="44" width="1536" height="2" fill="#ffffff" />
    <rect x="0" y="48" width="1536" height="2" fill="#ffffff" />
    <rect x="0" y="52" width="1536" height="2" fill="#ffffff" />
    <rect x="0" y="56" width="1536" height="2" fill="#ffffff" />
    <rect x="0" y="60" width="1536" height="2" fill="#ffffff" />
    <rect x="0" y="64" width="1536" height="2" fill="#ffffff" />
    <rect x="0" y="68" width="1536" height="2" fill="#ffffff" />
    <rect x="0" y="72" width="1536" height="2" fill="#ffffff" />
    <rect x="0" y="76" width="1536" height="2" fill="#ffffff" />
    <rect x="0" y="80" width="1536" height="2" fill="#ffffff" />
    <rect x="0" y="84" width="1536" height="2" fill="#ffffff" />
    <rect x="0" y="88" width="1536" height="2" fill="#ffffff" />
    <rect x="0" y="92" width="1536" height="2" fill="#ffffff" />
    <rect x="0" y="96" width="1536" height="2" fill="#ffffff" />
    <rect x="0" y="100" width="1536" height="2" fill="#ffffff" />
    <rect x="0" y="104" width="1536" height="2" fill="#ffffff" />
    <rect x="0" y="108" width="1536" height="2" fill="#ffffff" />
    <rect x="0" y="112" width="1536" height="2" fill="#ffffff" />
    <rect x="0" y="116" width="1536" height="2" fill="#ffffff" />
    <rect x="0" y="120" width="1536" height="2" fill="#ffffff" />
    <rect x="0" y="124" width="1536" height="2" fill="#ffffff" />
    <rect x="0" y="128" width="1536" height="2" fill="#ffffff" />
    <rect x="0" y="132" width="1536" height="2" fill="#ffffff" />
    <rect x="0" y="136" width="1536" height="2" fill="#ffffff" />
    <rect x="0" y="140" width="1536" height="2" fill="#ffffff" />
    <rect x="0" y="144" width="1536" height="2" fill="#ffffff" />
    <rect x="0" y="148" width="1536" height="2" fill="#ffffff" />
    <rect x="0" y="152" width="1536" height="2" fill="#ffffff" />
    <rect x="0" y="156" width="1536" height="2" fill="#ffffff" />
    <rect x="0" y="160" width="1536" height="2" fill="#ffffff" />
    <rect x="0" y="164" width="1536" height="2" fill="#ffffff" />
    <rect x="0" y="168" width="1536" height="2" fill="#ffffff" />
    <rect x="0" y="172" width="1536" height="2" fill="#ffffff" />
    <rect x="0" y="176" width="1536" height="2" fill="#ffffff" />
    <rect x="0" y="180" width="1536" height="2" fill="#ffffff" />
    <rect x="0" y="184" width="1536" height="2" fill="#ffffff" />
    <rect x="0" y="188" width="1536" height="2" fill="#ffffff" />
    <rect x="0" y="192" width="1536" height="2" fill="#ffffff" />
    <rect x="0" y="196" width="1536" height="2" fill="#ffffff" />
    <rect x="0" y="200" width="1536" height="2" fill="#ffffff" />
    <rect x="0" y="204" width="1536" height="2" fill="#ffffff" />
    <rect x="0" y="208" width="1536" height="2" fill="#ffffff" />
    <rect x="0" y="212" width="1536" height="2" fill="#ffffff" />
    <rect x="0" y="216" width="1536" height="2" fill="#ffffff" />
    <rect x="0" y="220" width="1536" height="2" fill="#ffffff" />
    <rect x="0" y="224" width="1536" height="2" fill="#ffffff" />
    <rect x="0" y="228" width="1536" height="2" fill="#ffffff" />
    <rect x="0" y="232" width="1536" height="2" fill="#ffffff" />
    <rect x="0" y="236" width="1536" height="2" fill="#ffffff" />
    <rect x="0" y="240" width="1536" height="2" fill="#ffffff" />
    <rect x="0" y="244" width="1536" height="2" fill="#ffffff" />
    <rect x="0" y="248" width="1536" height="2" fill="#ffffff" />
    <rect x="0" y="252" width="1536" height="2" fill="#ffffff" />
    <rect x="0" y="256" width="1536" height="2" fill="#ffffff" />
    <rect x="0" y="260" width="1536" height="2" fill="#ffffff" />
    <rect x="0" y="264" width="1536" height="2" fill="#ffffff" />
    <rect x="0" y="268" width="1536" height="2" fill="#ffffff" />
    <rect x="0" y="272" width="1536" height="2" fill="#ffffff" />
    <rect x="0" y="276" width="1536" height="2" fill="#ffffff" />
    <rect x="0" y="280" width="1536" height="2" fill="#ffffff" />
    <rect x="0" y="284" width="1536" height="2" fill="#ffffff" />
    <rect x="0" y="288" width="1536" height="2" fill="#ffffff" />
    <rect x="0" y="292" width="1536" height="2" fill="#ffffff" />
    <rect x="0" y="296" width="1536" height="2" fill="#ffffff" />
    <rect x="0" y="300" width="1536" height="2" fill="#ffffff" />
    <rect x="0" y="304" width="1536" height="2" fill="#ffffff" />
    <rect x="0" y="308" width="1536" height="2" fill="#ffffff" />
    <rect x="0" y="312" width="1536" height="2" fill="#ffffff" />
    <rect x="0" y="316" width="1536" height="2" fill="#ffffff" />
    <rect x="0" y="320" width="1536" height="2" fill="#ffffff" />
    <rect x="0" y="324" width="1536" height="2" fill="#ffffff" />
    <rect x="0" y="328" width="1536" height="2" fill="#ffffff" />
    <rect x="0" y="332" width="1536" height="2" fill="#ffffff" />
    <rect x="0" y="336" width="1536" height="2" fill="#ffffff" />
    <rect x="0" y="340" width="1536" height="2" fill="#ffffff" />
    <rect x="0" y="344" width="1536" height="2" fill="#ffffff" />
    <rect x="0" y="348" width="1536" height="2" fill="#ffffff" />
    <rect x="0" y="352" width="1536" height="2" fill="#ffffff" />
    <rect x="0" y="356" width="1536" height="2" fill="#ffffff" />
    <rect x="0" y="360" width="1536" height="2" fill="#ffffff" />
    <rect x="0" y="364" width="1536" height="2" fill="#ffffff" />
    <rect x="0" y="368" width="1536" height="2" fill="#ffffff" />
    <rect x="0" y="372" width="1536" height="2" fill="#ffffff" />
    <rect x="0" y="376" width="1536" height="2" fill="#ffffff" />
    <rect x="0" y="380" width="1536" height="2" fill="#ffffff" />
    <rect x="0" y="384" width="1536" height="2" fill="#ffffff" />
    <rect x="0" y="388" width="1536" height="2" fill="#ffffff" />
    <rect x="0" y="392" width="1536" height="2" fill="#ffffff" />
    <rect x="0" y="396" width="1536" height="2" fill="#ffffff" />
    <rect x="0" y="400" width="1536" height="2" fill="#ffffff" />
    <rect x="0" y="404" width="1536" height="2" fill="#ffffff" />
    <rect x="0" y="408" width="1536" height="2" fill="#ffffff" />
    <rect x="0" y="412" width="1536" height="2" fill="#ffffff" />
    <rect x="0" y="416" width="1536" height="2" fill="#ffffff" />
    <rect x="0" y="420" width="1536" height="2" fill="#ffffff" />
    <rect x="0" y="424" width="1536" height="2" fill="#ffffff" />
    <rect x="0" y="428" width="1536" height="2" fill="#ffffff" />
    <rect x="0" y="432" width="1536" height="2" fill="#ffffff" />
    <rect x="0" y="436" width="1536" height="2" fill="#ffffff" />
    <rect x="0" y="440" width="1536" height="2" fill="#ffffff" />
    <rect x="0" y="444" width="1536" height="2" fill="#ffffff" />
    <rect x="0" y="448" width="1536" height="2" fill="#ffffff" />
    <rect x="0" y="452" width="1536" height="2" fill="#ffffff" />
    <rect x="0" y="456" width="1536" height="2" fill="#ffffff" />
    <rect x="0" y="460" width="1536" height="2" fill="#ffffff" />
    <rect x="0" y="464" width="1536" height="2" fill="#ffffff" />
    <rect x="0" y="468" width="1536" height="2" fill="#ffffff" />
    <rect x="0" y="472" width="1536" height="2" fill="#ffffff" />
    <rect x="0" y="476" width="1536" height="2" fill="#ffffff" />
    <rect x="0" y="480" width="1536" height="2" fill="#ffffff" />
    <rect x="0" y="484" width="1536" height="2" fill="#ffffff" />
    <rect x="0" y="488" width="1536" height="2" fill="#ffffff" />
    <rect x="0" y="492" width="1536" height="2" fill="#ffffff" />
    <rect x="0" y="496" width="1536" height="2" fill="#ffffff" />
    <rect x="0" y="500" width="1536" height="2" fill="#ffffff" />
    <rect x="0" y="504" width="1536" height="2" fill="#ffffff" />
    <rect x="0" y="508" width="1536" height="2" fill="#ffffff" />
    <rect x="0" y="512" width="1536" height="2" fill="#ffffff" />
    <rect x="0" y="516" width="1536" height="2" fill="#ffffff" />
    <rect x="0" y="520" width="1536" height="2" fill="#ffffff" />
    <rect x="0" y="524" width="1536" height="2" fill="#ffffff" />
    <rect x="0" y="528" width="1536" height="2" fill="#ffffff" />
    <rect x="0" y="532" width="1536" height="2" fill="#ffffff" />
    <rect x="0" y="536" width="1536" height="2" fill="#ffffff" />
    <rect x="0" y="540" width="1536" height="2" fill="#ffffff" />
    <rect x="0" y="544" width="1536" height="2" fill="#ffffff" />
    <rect x="0" y="548" width="1536" height="2" fill="#ffffff" />
    <rect x="0" y="552" width="1536" height="2" fill="#ffffff" />
    <rect x="0" y="556" width="1536" height="2" fill="#ffffff" />
    <rect x="0" y="560" width="1536" height="2" fill="#ffffff" />
    <rect x="0" y="564" width="1536" height="2" fill="#ffffff" />
    <rect x="0" y="568" width="1536" height="2" fill="#ffffff" />
    <rect x="0" y="572" width="1536" height="2" fill="#ffffff" />
    <rect x="0" y="576" width="1536" height="2" fill="#ffffff" />
    <rect x="0" y="580" width="1536" height="2" fill="#ffffff" />
    <rect x="0" y="584" width="1536" height="2" fill="#ffffff" />
    <rect x="0" y="588" width="1536" height="2" fill="#ffffff" />
    <rect x="0" y="592" width="1536" height="2" fill="#ffffff" />
    <rect x="0" y="596" width="1536" height="2" fill="#ffffff" />
    <rect x="0" y="600" width="1536" height="2" fill="#ffffff" />
    <rect x="0" y="604" width="1536" height="2" fill="#ffffff" />
    <rect x="0" y="608" width="1536" height="2" fill="#ffffff" />
    <rect x="0" y="612" width="1536" height="2" fill="#ffffff" />
    <rect x="0" y="616" width="1536" height="2" fill="#ffffff" />
    <rect x="0" y="620" width="1536" height="2" fill="#ffffff" />
    <rect x="0" y="624" width="1536" height="2" fill="#ffffff" />
    <rect x="0" y="628" width="1536" height="2" fill="#ffffff" />
    <rect x="0" y="632" width="1536" height="2" fill="#ffffff" />
    <rect x="0" y="636" width="1536" height="2" fill="#ffffff" />
    <rect x="0" y="640" width="1536" height="2" fill="#ffffff" />
    <rect x="0" y="644" width="1536" height="2" fill="#ffffff" />
    <rect x="0" y="648" width="1536" height="2" fill="#ffffff" />
    <rect x="0" y="652" width="1536" height="2" fill="#ffffff" />
    <rect x="0" y="656" width="1536" height="2" fill="#ffffff" />
    <rect x="0" y="660" width="1536" height="2" fill="#ffffff" />
    <rect x="0" y="664" width="1536" height="2" fill="#ffffff" />
    <rect x="0" y="668" width="1536" height="2" fill="#ffffff" />
    <rect x="0" y="672" width="1536" height="2" fill="#ffffff" />
    <rect x="0" y="676" width="1536" height="2" fill="#ffffff" />
    <rect x="0" y="680" width="1536" height="2" fill="#ffffff" />
    <rect x="0" y="684" width="1536" height="2" fill="#ffffff" />
    <rect x="0" y="688" width="1536" height="2" fill="#ffffff" />
    <rect x="0" y="692" width="1536" height="2" fill="#ffffff" />
    <rect x="0" y="696" width="1536" height="2" fill="#ffffff" />
    <rect x="0" y="700" width="1536" height="2" fill="#ffffff" />
    <rect x="0" y="704" width="1536" height="2" fill="#ffffff" />
    <rect x="0" y="708" width="1536" height="2" fill="#ffffff" />
    <rect x="0" y="712" width="1536" height="2" fill="#ffffff" />
    <rect x="0" y="716" width="1536" height="2" fill="#ffffff" />
    <rect x="0" y="720" width="1536" height="2" fill="#ffffff" />
    <rect x="0" y="724" width="1536" height="2" fill="#ffffff" />
    <rect x="0" y="728" width="1536" height="2" fill="#ffffff" />
    <rect x="0" y="732" width="1536" height="2" fill="#ffffff" />
    <rect x="0" y="736" width="1536" height="2" fill="#ffffff" />
    <rect x="0" y="740" width="1536" height="2" fill="#ffffff" />
    <rect x="0" y="744" width="1536" height="2" fill="#ffffff" />
    <rect x="0" y="748" width="1536" height="2" fill="#ffffff" />
    <rect x="0" y="752" width="1536" height="2" fill="#ffffff" />
    <rect x="0" y="756" width="1536" height="2" fill="#ffffff" />
    <rect x="0" y="760" width="1536" height="2" fill="#ffffff" />
    <rect x="0" y="764" width="1536" height="2" fill="#ffffff" />
    <rect x="0" y="768" width="1536" height="2" fill="#ffffff" />
    <rect x="0" y="772" width="1536" height="2" fill="#ffffff" />
    <rect x="0" y="776" width="1536" height="2" fill="#ffffff" />
    <rect x="0" y="780" width="1536" height="2" fill="#ffffff" />
    <rect x="0" y="784" width="1536" height="2" fill="#ffffff" />
    <rect x="0" y="788" width="1536" height="2" fill="#ffffff" />
    <rect x="0" y="792" width="1536" height="2" fill="#ffffff" />
    <rect x="0" y="796" width="1536" height="2" fill="#ffffff" />
    <rect x="0" y="800" width="1536" height="2" fill="#ffffff" />
    <rect x="0" y="804" width="1536" height="2" fill="#ffffff" />
    <rect x="0" y="808" width="1536" height="2" fill="#ffffff" />
    <rect x="0" y="812" width="1536" height="2" fill="#ffffff" />
    <rect x="0" y="816" width="1536" height="2" fill="#ffffff" />
    <rect x="0" y="820" width="1536" height="2" fill="#ffffff" />
    <rect x="0" y="824" width="1536" height="2" fill="#ffffff" />
    <rect x="0" y="828" width="1536" height="2" fill="#ffffff" />
    <rect x="0" y="832" width="1536" height="2" fill="#ffffff" />
    <rect x="0" y="836" width="1536" height="2" fill="#ffffff" />
    <rect x="0" y="840" width="1536" height="2" fill="#ffffff" />
    <rect x="0" y="844" width="1536" height="2" fill="#ffffff" />
    <rect x="0" y="848" width="1536" height="2" fill="#ffffff" />
    <rect x="0" y="852" width="1536" height="2" fill="#ffffff" />
    <rect x="0" y="856" width="1536" height="2" fill="#ffffff" />
    <rect x="0" y="860" width="1536" height="2" fill="#ffffff" />
    <rect x="0" y="864" width="1536" height="2" fill="#ffffff" />
    <rect x="0" y="868" width="1536" height="2" fill="#ffffff" />
    <rect x="0" y="872" width="1536" height="2" fill="#ffffff" />
    <rect x="0" y="876" width="1536" height="2" fill="#ffffff" />
    <rect x="0" y="880" width="1536" height="2" fill="#ffffff" />
    <rect x="0" y="884" width="1536" height="2" fill="#ffffff" />
    <rect x="0" y="888" width="1536" height="2" fill="#ffffff" />
    <rect x="0" y="892" width="1536" height="2" fill="#ffffff" />
    <rect x="0" y="896" width="1536" height="2" fill="#ffffff" />
    <rect x="0" y="900" width="1536" height="2" fill="#ffffff" />
    <rect x="0" y="904" width="1536" height="2" fill="#ffffff" />
    <rect x="0" y="908" width="1536" height="2" fill="#ffffff" />
    <rect x="0" y="912" width="1536" height="2" fill="#ffffff" />
    <rect x="0" y="916" width="1536" height="2" fill="#ffffff" />
    <rect x="0" y="920" width="1536" height="2" fill="#ffffff" />
    <rect x="0" y="924" width="1536" height="2" fill="#ffffff" />
    <rect x="0" y="928" width="1536" height="2" fill="#ffffff" />
    <rect x="0" y="932" width="1536" height="2" fill="#ffffff" />
    <rect x="0" y="936" width="1536" height="2" fill="#ffffff" />
    <rect x="0" y="940" width="1536" height="2" fill="#ffffff" />
    <rect x="0" y="944" width="1536" height="2" fill="#ffffff" />
    <rect x="0" y="948" width="1536" height="2" fill="#ffffff" />
    <rect x="0" y="952" width="1536" height="2" fill="#ffffff" />
    <rect x="0" y="956" width="1536" height="2" fill="#ffffff" />
    <rect x="0" y="960" width="1536" height="2" fill="#ffffff" />
    <rect x="0" y="964" width="1536" height="2" fill="#ffffff" />
    <rect x="0" y="968" width="1536" height="2" fill="#ffffff" />
    <rect x="0" y="972" width="1536" height="2" fill="#ffffff" />
    <rect x="0" y="976" width="1536" height="2" fill="#ffffff" />
    <rect x="0" y="980" width="1536" height="2" fill="#ffffff" />
    <rect x="0" y="984" width="1536" height="2" fill="#ffffff" />
    <rect x="0" y="988" width="1536" height="2" fill="#ffffff" />
    <rect x="0" y="992" width="1536" height="2" fill="#ffffff" />
    <rect x="0" y="996" width="1536" height="2" fill="#ffffff" />
    <rect x="0" y="1000" width="1536" height="2" fill="#ffffff" />
    <rect x="0" y="1004" width="1536" height="2" fill="#ffffff" />
    <rect x="0" y="1008" width="1536" height="2" fill="#ffffff" />
    <rect x="0" y="1012" width="1536" height="2" fill="#ffffff" />
    <rect x="0" y="1016" width="1536" height="2" fill="#ffffff" />
    <rect x="0" y="1020" width="1536" height="2" fill="#ffffff" />
  </g>

  
  <rect x="20" y="20" width="1496" height="984" fill="none" stroke="#00ffcc" stroke-width="4" opacity="0.6" />
  <rect x="32" y="32" width="1472" height="960" fill="none" stroke="#ff00ff" stroke-width="2" opacity="0.4" />

  
  
  <rect x="20" y="20" width="16" height="16" fill="#00ffcc" />
  <rect x="36" y="20" width="8" height="8" fill="#00ffcc" />
  <rect x="20" y="36" width="8" height="8" fill="#00ffcc" />
  
  <rect x="1500" y="20" width="16" height="16" fill="#00ffcc" />
  <rect x="1492" y="20" width="8" height="8" fill="#00ffcc" />
  <rect x="1508" y="36" width="8" height="8" fill="#00ffcc" />
  
  <rect x="20" y="988" width="16" height="16" fill="#00ffcc" />
  <rect x="36" y="996" width="8" height="8" fill="#00ffcc" />
  <rect x="20" y="980" width="8" height="8" fill="#00ffcc" />
  
  <rect x="1500" y="988" width="16" height="16" fill="#00ffcc" />
  <rect x="1492" y="996" width="8" height="8" fill="#00ffcc" />
  <rect x="1508" y="980" width="8" height="8" fill="#00ffcc" />

  
  
  

  
  
  <rect x="80" y="100" width="280" height="260" fill="#1a0050" stroke="#ff00ff" stroke-width="4" />
  <rect x="80" y="100" width="280" height="48" fill="#ff00ff" />
  
  <rect x="132" y="88" width="16" height="32" fill="#ffff00" />
  <rect x="212" y="88" width="16" height="32" fill="#ffff00" />
  <rect x="292" y="88" width="16" height="32" fill="#ffff00" />
  
  <text x="220" y="134" font-family="monospace" font-size="28" font-weight="bold" fill="#1a0050" text-anchor="middle" letter-spacing="2">2008</text>
  
  <rect x="100" y="168" width="20" height="20" fill="#00ffcc" />
  <rect x="130" y="168" width="20" height="20" fill="#00ffcc" />
  <rect x="160" y="168" width="20" height="20" fill="#00ffcc" />
  <rect x="190" y="168" width="20" height="20" fill="#00ffcc" />
  <rect x="220" y="168" width="20" height="20" fill="#00ffcc" />
  <rect x="250" y="168" width="20" height="20" fill="#ff4444" />
  <rect x="280" y="168" width="20" height="20" fill="#ff4444" />
  <rect x="100" y="198" width="20" height="20" fill="#00ffcc" />
  <rect x="130" y="198" width="20" height="20" fill="#00ffcc" />
  <rect x="160" y="198" width="20" height="20" fill="#00ffcc" />
  <rect x="190" y="198" width="20" height="20" fill="#ffff00" />
  <rect x="220" y="198" width="20" height="20" fill="#00ffcc" />
  <rect x="250" y="198" width="20" height="20" fill="#ff4444" />
  <rect x="280" y="198" width="20" height="20" fill="#ff4444" />
  <rect x="100" y="228" width="20" height="20" fill="#00ffcc" />
  <rect x="130" y="228" width="20" height="20" fill="#00ffcc" />
  <rect x="160" y="228" width="20" height="20" fill="#ff4444" />
  <rect x="190" y="228" width="20" height="20" fill="#00ffcc" />
  <rect x="220" y="228" width="20" height="20" fill="#00ffcc" />
  <rect x="250" y="228" width="20" height="20" fill="#ff4444" />
  <rect x="280" y="228" width="20" height="20" fill="#ff4444" />
  <rect x="100" y="258" width="20" height="20" fill="#00ffcc" />
  <rect x="130" y="258" width="20" height="20" fill="#00ffcc" />
  <rect x="160" y="258" width="20" height="20" fill="#00ffcc" />
  <rect x="190" y="258" width="20" height="20" fill="#00ffcc" />
  <rect x="220" y="258" width="20" height="20" fill="#ffff00" />
  <rect x="250" y="258" width="20" height="20" fill="#ff4444" />
  <rect x="280" y="258" width="20" height="20" fill="#ff4444" />
  <rect x="100" y="288" width="20" height="20" fill="#00ffcc" />
  <rect x="130" y="288" width="20" height="20" fill="#00ffcc" />
  <rect x="160" y="288" width="20" height="20" fill="#00ffcc" />
  <rect x="190" y="288" width="20" height="20" fill="#00ffcc" />
  <rect x="220" y="288" width="20" height="20" fill="#00ffcc" />
  <rect x="250" y="288" width="20" height="20" fill="#ff4444" />
  <rect x="280" y="288" width="20" height="20" fill="#ff4444" />
  
  <rect x="190" y="198" width="20" height="20" fill="#ff8800" />

  
  
  <rect x="440" y="320" width="24" height="80" fill="#c8a000" />
  <rect x="448" y="316" width="8" height="8" fill="#c8a000" />
  
  <rect x="432" y="280" width="40" height="44" fill="#ff4400" />
  <rect x="436" y="256" width="32" height="28" fill="#ff6600" />
  <rect x="440" y="236" width="24" height="24" fill="#ffaa00" />
  <rect x="444" y="220" width="16" height="20" fill="#ffdd00" />
  <rect x="448" y="208" width="8" height="16" fill="#ffffff" />
  
  <rect x="424" y="268" width="16" height="20" fill="#ff4400" />
  <rect x="420" y="256" width="12" height="16" fill="#ff6600" />
  
  <rect x="456" y="268" width="16" height="20" fill="#ff4400" />
  <rect x="460" y="256" width="12" height="16" fill="#ff6600" />
  
  <text x="452" y="430" font-family="monospace" font-size="16" fill="#00ffcc" text-anchor="middle" opacity="0.8">BEIJING</text>
  <text x="452" y="450" font-family="monospace" font-size="16" fill="#00ffcc" text-anchor="middle" opacity="0.8">OLYMPICS</text>

  
  <rect x="600" y="180" width="100" height="170" rx="0" fill="#222244" stroke="#00ffcc" stroke-width="4" />
  <rect x="612" y="200" width="76" height="100" fill="#0044aa" />
  
  <rect x="616" y="204" width="18" height="18" fill="#ff4444" />
  <rect x="638" y="204" width="18" height="18" fill="#44ff44" />
  <rect x="660" y="204" width="18" height="18" fill="#ffff00" />
  <rect x="616" y="226" width="18" height="18" fill="#ff8800" />
  <rect x="638" y="226" width="18" height="18" fill="#aa44ff" />
  <rect x="660" y="226" width="18" height="18" fill="#00ffcc" />
  <rect x="616" y="248" width="18" height="18" fill="#ff00ff" />
  <rect x="638" y="248" width="18" height="18" fill="#0088ff" />
  <rect x="660" y="248" width="18" height="18" fill="#ff4444" />
  
  <rect x="638" y="316" width="24" height="16" fill="#334466" stroke="#00ffcc" stroke-width="2" />
  <text x="650" y="390" font-family="monospace" font-size="14" fill="#00ffcc" text-anchor="middle">APP STORE</text>
  <text x="650" y="408" font-family="monospace" font-size="14" fill="#00ffcc" text-anchor="middle">LAUNCH</text>

  
  
  <rect x="80" y="460" width="280" height="200" fill="#0a0020" stroke="#ff00ff" stroke-width="2" />
  <text x="220" y="490" font-family="monospace" font-size="16" fill="#ffff00" text-anchor="middle">MARKET CRASH</text>
  
  <rect x="110" y="500" width="4" height="140" fill="#00ffcc" />
  
  <rect x="110" y="636" width="220" height="4" fill="#00ffcc" />
  
  <rect x="124" y="520" width="24" height="120" fill="#00ff44" />
  <rect x="156" y="530" width="24" height="110" fill="#44ff00" />
  <rect x="188" y="545" width="24" height="95" fill="#aaff00" />
  <rect x="220" y="560" width="24" height="80" fill="#ffff00" />
  <rect x="252" y="580" width="24" height="60" fill="#ff8800" />
  <rect x="284" y="605" width="24" height="35" fill="#ff4400" />
  <rect x="316" y="618" width="24" height="22" fill="#ff0000" />
  
  <rect x="290" y="580" width="8" height="40" fill="#ff0000" />
  <rect x="278" y="608" width="32" height="8" fill="#ff0000" />
  <rect x="286" y="616" width="16" height="8" fill="#ff0000" />
  <rect x="294" y="624" width="8" height="8" fill="#ff0000" />

  
  
  

  
  <rect x="740" y="80" width="720" height="8" fill="#ff00ff" opacity="0.5" />

  <text x="768" y="170" font-family="monospace" font-size="36" fill="#ff00ff" font-weight="bold" letter-spacing="8" opacity="0.9">THE YEAR</text>

  
  
  <text x="778" y="340" font-family="monospace" font-size="200" fill="#ff00ff" font-weight="bold" opacity="0.3" letter-spacing="-4">2008</text>
  
  <text x="772" y="334" font-family="monospace" font-size="200" fill="#00ffcc" font-weight="bold" letter-spacing="-4">2008</text>

  
  <rect x="768" y="370" width="700" height="6" fill="#ffff00" opacity="0.7" />
  <text x="768" y="416" font-family="monospace" font-size="40" fill="#ffff00" font-weight="bold" letter-spacing="4">KNOWLEDGE INDEX</text>
  <rect x="768" y="428" width="700" height="6" fill="#ffff00" opacity="0.7" />

  
  <text x="768" y="490" font-family="monospace" font-size="22" fill="#aaffee" opacity="0.9">Every notable event, linked to its article.</text>
  <text x="768" y="520" font-family="monospace" font-size="22" fill="#aaffee" opacity="0.7">History · Science · Arts · Society · People</text>

  
  
  

  
  
  <rect x="1280" y="100" width="28" height="200" fill="#aa4400" />
  
  <rect x="1308" y="108" width="140" height="184" fill="#ffeecc" />
  
  <rect x="1320" y="130" width="112" height="6" fill="#996644" opacity="0.6" />
  <rect x="1320" y="146" width="90" height="6" fill="#996644" opacity="0.6" />
  <rect x="1320" y="162" width="112" height="6" fill="#996644" opacity="0.6" />
  <rect x="1320" y="178" width="70" height="6" fill="#996644" opacity="0.6" />
  <rect x="1320" y="194" width="112" height="6" fill="#996644" opacity="0.6" />
  <rect x="1320" y="210" width="80" height="6" fill="#996644" opacity="0.6" />
  <rect x="1320" y="226" width="112" height="6" fill="#996644" opacity="0.6" />
  <rect x="1320" y="242" width="60" height="6" fill="#996644" opacity="0.6" />
  
  <rect x="1280" y="100" width="168" height="200" fill="none" stroke="#ffaa44" stroke-width="4" />

  
  
  
  <rect x="1050" y="108" width="24" height="8" fill="#4444ff" />
  <rect x="1074" y="108" width="48" height="8" fill="#4444ff" />
  <rect x="1122" y="108" width="24" height="8" fill="#4444ff" />
  <rect x="1034" y="116" width="16" height="8" fill="#4444ff" />
  <rect x="1050" y="116" width="96" height="8" fill="#4444ff" />
  <rect x="1146" y="116" width="16" height="8" fill="#4444ff" />
  <rect x="1026" y="124" width="8" height="8" fill="#4444ff" />
  <rect x="1034" y="124" width="104" height="8" fill="#4444ff" />
  <rect x="1138" y="124" width="8" height="8" fill="#4444ff" />
  
  <rect x="1034" y="132" width="8" height="72" fill="#4444ff" />
  <rect x="1154" y="132" width="8" height="72" fill="#4444ff" />
  
  <rect x="1042" y="132" width="112" height="72" fill="#0066cc" />
  
  <rect x="1050" y="136" width="32" height="20" fill="#228822" />
  <rect x="1090" y="140" width="40" height="16" fill="#228822" />
  <rect x="1050" y="164" width="20" height="24" fill="#228822" />
  <rect x="1100" y="160" width="32" height="20" fill="#228822" />
  
  <rect x="1026" y="204" width="8" height="8" fill="#4444ff" />
  <rect x="1034" y="204" width="104" height="8" fill="#4444ff" />
  <rect x="1138" y="204" width="8" height="8" fill="#4444ff" />
  <rect x="1034" y="212" width="16" height="8" fill="#4444ff" />
  <rect x="1050" y="212" width="96" height="8" fill="#4444ff" />
  <rect x="1146" y="212" width="16" height="8" fill="#4444ff" />
  <rect x="1050" y="220" width="24" height="8" fill="#4444ff" />
  <rect x="1074" y="220" width="48" height="8" fill="#4444ff" />
  <rect x="1122" y="220" width="24" height="8" fill="#4444ff" />
  
  <text x="1092" y="254" font-family="monospace" font-size="16" fill="#00ffcc" text-anchor="middle">WORLD</text>
  <text x="1092" y="272" font-family="monospace" font-size="16" fill="#00ffcc" text-anchor="middle">EVENTS</text>

  
  
  

  
  <rect x="80" y="740" width="1376" height="8" fill="#00ffcc" opacity="0.6" />

  
  
  <rect x="80" y="724" width="8" height="20" fill="#00ffcc" />
  <text x="84" y="718" font-family="monospace" font-size="14" fill="#aaffee" text-anchor="middle">JAN</text>
  
  <rect x="194" y="724" width="8" height="20" fill="#00ffcc" />
  <text x="198" y="718" font-family="monospace" font-size="14" fill="#aaffee" text-anchor="middle">FEB</text>
  
  <rect x="308" y="724" width="8" height="20" fill="#00ffcc" />
  <text x="312" y="718" font-family="monospace" font-size="14" fill="#aaffee" text-anchor="middle">MAR</text>
  
  <rect x="422" y="724" width="8" height="20" fill="#00ffcc" />
  <text x="426" y="718" font-family="monospace" font-size="14" fill="#aaffee" text-anchor="middle">APR</text>
  
  <rect x="536" y="724" width="8" height="20" fill="#00ffcc" />
  <text x="540" y="718" font-family="monospace" font-size="14" fill="#aaffee" text-anchor="middle">MAY</text>
  
  <rect x="650" y="724" width="8" height="20" fill="#00ffcc" />
  <text x="654" y="718" font-family="monospace" font-size="14" fill="#aaffee" text-anchor="middle">JUN</text>
  
  <rect x="764" y="724" width="8" height="20" fill="#00ffcc" />
  <text x="768" y="718" font-family="monospace" font-size="14" fill="#aaffee" text-anchor="middle">JUL</text>
  
  <rect x="878" y="724" width="8" height="20" fill="#00ffcc" />
  <text x="882" y="718" font-family="monospace" font-size="14" fill="#aaffee" text-anchor="middle">AUG</text>
  
  <rect x="992" y="724" width="8" height="20" fill="#00ffcc" />
  <text x="996" y="718" font-family="monospace" font-size="14" fill="#aaffee" text-anchor="middle">SEP</text>
  
  <rect x="1106" y="724" width="8" height="20" fill="#00ffcc" />
  <text x="1110" y="718" font-family="monospace" font-size="14" fill="#aaffee" text-anchor="middle">OCT</text>
  
  <rect x="1220" y="724" width="8" height="20" fill="#00ffcc" />
  <text x="1224" y="718" font-family="monospace" font-size="14" fill="#aaffee" text-anchor="middle">NOV</text>
  
  <rect x="1448" y="724" width="8" height="20" fill="#00ffcc" />
  <text x="1452" y="718" font-family="monospace" font-size="14" fill="#aaffee" text-anchor="middle">DEC</text>

  
  
  <rect x="874" y="690" width="16" height="36" fill="#ff8800" />
  <rect x="866" y="678" width="32" height="16" fill="#ff8800" />
  <rect x="870" y="666" width="24" height="16" fill="#ffff00" />
  <text x="882" y="790" font-family="monospace" font-size="13" fill="#ff8800" text-anchor="middle">OLYMPICS</text>

  
  <rect x="1224" y="680" width="16" height="48" fill="#4488ff" />
  <rect x="1216" y="668" width="32" height="16" fill="#4488ff" />
  <rect x="1220" y="652" width="24" height="20" fill="#ffff00" />
  <text x="1232" y="790" font-family="monospace" font-size="13" fill="#4488ff" text-anchor="middle">OBAMA ELECTED</text>

  
  <rect x="992" y="686" width="16" height="42" fill="#ff0000" />
  <rect x="984" y="674" width="32" height="16" fill="#ff0000" />
  <rect x="988" y="660" width="24" height="18" fill="#ff4400" />
  <text x="1000" y="790" font-family="monospace" font-size="13" fill="#ff4400" text-anchor="middle">BANK CRASH</text>

  
  <rect x="764" y="690" width="16" height="38" fill="#aa44ff" />
  <rect x="756" y="678" width="32" height="16" fill="#aa44ff" />
  <rect x="760" y="664" width="24" height="18" fill="#ff00ff" />
  <text x="772" y="790" font-family="monospace" font-size="13" fill="#aa44ff" text-anchor="middle">APP STORE</text>

  
  <rect x="1040" y="694" width="16" height="34" fill="#00ff88" />
  <text x="1048" y="804" font-family="monospace" font-size="13" fill="#00ff88" text-anchor="middle">LHC</text>

  
  
  
  

  
  
  <rect x="1360" y="500" width="64" height="64" fill="#ffcc88" />
  
  <rect x="1372" y="516" width="12" height="12" fill="#111111" />
  <rect x="1400" y="516" width="12" height="12" fill="#111111" />
  
  <rect x="1376" y="540" width="8" height="8" fill="#cc4444" />
  <rect x="1384" y="548" width="16" height="8" fill="#cc4444" />
  <rect x="1396" y="540" width="8" height="8" fill="#cc4444" />
  
  <rect x="1352" y="564" width="80" height="80" fill="#0044cc" />
  
  <rect x="1376" y="560" width="32" height="12" fill="#ffcc88" />
  
  <rect x="1312" y="564" width="40" height="20" fill="#0044cc" />
  <rect x="1432" y="564" width="40" height="20" fill="#0044cc" />
  
  <rect x="1296" y="564" width="20" height="20" fill="#ffcc88" />
  <rect x="1468" y="564" width="20" height="20" fill="#ffcc88" />
  
  <rect x="1360" y="644" width="28" height="60" fill="#222288" />
  <rect x="1396" y="644" width="28" height="60" fill="#222288" />
  
  <rect x="1352" y="700" width="40" height="16" fill="#111111" />
  <rect x="1392" y="700" width="40" height="16" fill="#111111" />

  
  <rect x="1384" y="460" width="16" height="16" fill="#ffff00" />
  <rect x="1376" y="468" width="32" height="8" fill="#ffff00" />
  <rect x="1384" y="476" width="16" height="8" fill="#ffff00" />
  
  <rect x="1312" y="572" width="28" height="8" fill="#ffff00" opacity="0.8" />

  
  
  
  <rect x="750" y="60" width="6" height="6" fill="#ffffff" opacity="0.6" />
  <rect x="820" y="48" width="4" height="4" fill="#ffffff" opacity="0.4" />
  <rect x="900" y="62" width="6" height="6" fill="#ffff00" opacity="0.5" />
  <rect x="980" y="44" width="4" height="4" fill="#ffffff" opacity="0.4" />
  <rect x="1060" y="58" width="6" height="6" fill="#00ffcc" opacity="0.5" />
  <rect x="1140" y="48" width="4" height="4" fill="#ffffff" opacity="0.4" />
  <rect x="1220" y="60" width="6" height="6" fill="#ff00ff" opacity="0.5" />
  <rect x="1300" y="44" width="4" height="4" fill="#ffffff" opacity="0.4" />
  <rect x="1400" y="56" width="6" height="6" fill="#ffff00" opacity="0.5" />
  <rect x="1480" y="48" width="4" height="4" fill="#ffffff" opacity="0.3" />

  
  <rect x="80" y="840" width="40" height="24" fill="#ff00ff" opacity="0.5" />
  <rect x="128" y="840" width="40" height="24" fill="#aa44ff" opacity="0.5" />
  <rect x="176" y="840" width="40" height="24" fill="#0044ff" opacity="0.5" />
  <rect x="224" y="840" width="40" height="24" fill="#0088ff" opacity="0.5" />
  <rect x="272" y="840" width="40" height="24" fill="#00ccff" opacity="0.5" />
  <rect x="320" y="840" width="40" height="24" fill="#00ffcc" opacity="0.5" />
  <rect x="368" y="840" width="40" height="24" fill="#00ff88" opacity="0.5" />
  <rect x="416" y="840" width="40" height="24" fill="#44ff00" opacity="0.5" />
  <rect x="464" y="840" width="40" height="24" fill="#aaff00" opacity="0.5" />
  <rect x="512" y="840" width="40" height="24" fill="#ffff00" opacity="0.5" />
  <rect x="560" y="840" width="40" height="24" fill="#ffcc00" opacity="0.5" />
  <rect x="608" y="840" width="40" height="24" fill="#ff8800" opacity="0.5" />
  <rect x="656" y="840" width="40" height="24" fill="#ff4400" opacity="0.5" />
  <rect x="704" y="840" width="40" height="24" fill="#ff0000" opacity="0.5" />
  <rect x="752" y="840" width="40" height="24" fill="#ff0044" opacity="0.5" />
  <rect x="800" y="840" width="40" height="24" fill="#ff0088" opacity="0.5" />
  <rect x="848" y="840" width="40" height="24" fill="#ff00cc" opacity="0.5" />
  <rect x="896" y="840" width="40" height="24" fill="#ff00ff" opacity="0.5" />
  <rect x="944" y="840" width="40" height="24" fill="#cc00ff" opacity="0.5" />
  <rect x="992" y="840" width="40" height="24" fill="#8800ff" opacity="0.5" />
  <rect x="1040" y="840" width="40" height="24" fill="#4400ff" opacity="0.5" />
  <rect x="1088" y="840" width="40" height="24" fill="#0000ff" opacity="0.5" />
  <rect x="1136" y="840" width="40" height="24" fill="#0044ff" opacity="0.5" />
  <rect x="1184" y="840" width="40" height="24" fill="#0088ff" opacity="0.5" />
  <rect x="1232" y="840" width="40" height="24" fill="#00ccff" opacity="0.5" />
  <rect x="1280" y="840" width="40" height="24" fill="#00ffff" opacity="0.5" />
  <rect x="1328" y="840" width="40" height="24" fill="#00ffcc" opacity="0.5" />
  <rect x="1376" y="840" width="40" height="24" fill="#00ff88" opacity="0.5" />
  <rect x="1424" y="840" width="40" height="24" fill="#44ff44" opacity="0.5" />

  
  <text x="768" y="900" font-family="monospace" font-size="20" fill="#00ffcc" opacity="0.7" letter-spacing="3">■ HISTORY &amp; POLITICS  ■ SCIENCE &amp; TECH  ■ ARTS &amp; CULTURE  ■ SOCIETY &amp; ECONOMICS  ■ PEOPLE</text>

  
  <rect x="640" y="940" width="256" height="48" fill="#1a0050" stroke="#ff00ff" stroke-width="2" />
  <text x="768" y="972" font-family="monospace" font-size="22" fill="#ffff00" text-anchor="middle" letter-spacing="2">► INSERT COIN TO EXPLORE ◄</text>

  
  <radialGradient id="vignette" cx="50%" cy="50%" r="70%">
    <stop offset="50%" stop-color="transparent" />
    <stop offset="100%" stop-color="#000000" stop-opacity="0.7" />
  </radialGradient>
  <rect width="1536" height="1024" fill="url(#vignette)" pointer-events="none" />
</svg>