<svg xmlns="http://www.w3.org/2000/svg" viewBox="0 0 1536 1024" role="img" width="1536" height="1024">
  <title>Tiger Woods Wins the US Open Despite ACL Tear – Retro Pixel Art Banner</title>

  <defs>
    <radialGradient id="crt" cx="50%" cy="50%" r="70%">
      <stop offset="0%" stop-color="#1a3a1a" />
      <stop offset="100%" stop-color="#000800" />
    </radialGradient>
    <radialGradient id="glow" cx="50%" cy="50%" r="50%">
      <stop offset="0%" stop-color="#00ff44" stop-opacity="0.15" />
      <stop offset="100%" stop-color="#00ff44" stop-opacity="0" />
    </radialGradient>
    <filter id="crtglow">
      <feGaussianBlur stdDeviation="3" result="blur" />
      <feMerge><feMergeNode in="blur" /><feMergeNode in="SourceGraphic" /></feMerge>
    </filter>
  </defs>

  
  <rect width="1536" height="1024" fill="url(#crt)" />
  <rect width="1536" height="1024" fill="url(#glow)" />

  
  <rect width="1536" height="2" y="0" fill="#00ff44" fill-opacity="0.03" />
  <rect width="1536" height="1" y="4" fill="#00ff44" fill-opacity="0.03" />
  <rect width="1536" height="1" y="8" fill="#00ff44" fill-opacity="0.03" />
  <rect width="1536" height="1" y="12" fill="#00ff44" fill-opacity="0.03" />
  <rect width="1536" height="1" y="16" fill="#00ff44" fill-opacity="0.03" />
  
  
  <rect width="1536" height="1024" fill="none" stroke="#001a00" stroke-width="4" stroke-dasharray="0,4" opacity="0.4" />

  
  <rect width="1536" height="1024" fill="url(#scanlines)" opacity="0.2" />

  
  
  <rect x="0" y="0" width="1536" height="580" fill="#0a1a08" />

  
  <rect x="80" y="40" width="8" height="8" fill="#ffff44" />
  <rect x="200" y="80" width="8" height="8" fill="#ffffff" />
  <rect x="340" y="30" width="8" height="8" fill="#ffff44" />
  <rect x="500" y="60" width="8" height="8" fill="#ffffff" />
  <rect x="620" y="20" width="8" height="8" fill="#ffff44" />
  <rect x="900" y="50" width="8" height="8" fill="#ffffff" />
  <rect x="1050" y="30" width="8" height="8" fill="#ffff44" />
  <rect x="1200" y="70" width="8" height="8" fill="#ffffff" />
  <rect x="1380" y="40" width="8" height="8" fill="#ffff44" />
  <rect x="1460" y="90" width="8" height="8" fill="#ffffff" />
  <rect x="760" y="35" width="8" height="8" fill="#aaffaa" />
  <rect x="150" y="140" width="4" height="4" fill="#aaaaff" />
  <rect x="450" y="110" width="4" height="4" fill="#aaaaff" />
  <rect x="1100" y="120" width="4" height="4" fill="#aaaaff" />
  <rect x="1320" y="150" width="4" height="4" fill="#aaaaff" />

  
  <rect x="0" y="580" width="1536" height="444" fill="#0d4a0d" />
  
  <rect x="0" y="580" width="1536" height="16" fill="#0a3a0a" />
  
  <rect x="0" y="596" width="1536" height="24" fill="#0f5a0f" />
  <rect x="0" y="644" width="1536" height="24" fill="#0f5a0f" />
  <rect x="0" y="692" width="1536" height="24" fill="#0f5a0f" />
  <rect x="0" y="740" width="1536" height="24" fill="#0f5a0f" />
  <rect x="0" y="788" width="1536" height="24" fill="#0f5a0f" />
  <rect x="0" y="836" width="1536" height="24" fill="#0f5a0f" />
  <rect x="0" y="884" width="1536" height="24" fill="#0f5a0f" />
  <rect x="0" y="932" width="1536" height="24" fill="#0f5a0f" />
  <rect x="0" y="980" width="1536" height="24" fill="#0f5a0f" />

  
  
  
  <rect x="440" y="280" width="64" height="16" fill="#c8873a" filter="url(#crtglow)" />
  <rect x="432" y="296" width="80" height="48" fill="#c8873a" />
  
  <rect x="432" y="264" width="80" height="24" fill="#cc0000" />
  <rect x="424" y="280" width="8" height="16" fill="#cc0000" />
  <rect x="512" y="280" width="16" height="8" fill="#cc0000" />
  
  <rect x="448" y="304" width="8" height="8" fill="#1a0a00" />
  <rect x="480" y="304" width="8" height="8" fill="#1a0a00" />
  
  <rect x="456" y="320" width="24" height="8" fill="#8b4513" />
  
  <rect x="456" y="344" width="24" height="16" fill="#c8873a" />
  
  <rect x="416" y="360" width="104" height="96" fill="#cc0000" />
  
  <rect x="448" y="360" width="8" height="16" fill="#ffffff" />
  <rect x="480" y="360" width="8" height="16" fill="#ffffff" />
  
  <rect x="384" y="360" width="32" height="24" fill="#cc0000" />
  <rect x="368" y="384" width="32" height="24" fill="#cc0000" />
  <rect x="352" y="408" width="32" height="24" fill="#c8873a" />
  
  <rect x="520" y="360" width="32" height="24" fill="#cc0000" />
  <rect x="536" y="384" width="32" height="24" fill="#cc0000" />
  <rect x="544" y="408" width="32" height="24" fill="#c8873a" />
  
  <rect x="344" y="432" width="8" height="160" fill="#888888" />
  <rect x="336" y="584" width="24" height="8" fill="#ccaa44" />
  
  <rect x="424" y="456" width="48" height="96" fill="#1a1a4a" />
  <rect x="464" y="456" width="48" height="96" fill="#222266" />
  
  <rect x="424" y="552" width="40" height="40" fill="#1a1a4a" />
  
  <rect x="472" y="552" width="40" height="40" fill="#222266" />
  
  <rect x="416" y="592" width="48" height="16" fill="#111111" />
  <rect x="464" y="592" width="56" height="16" fill="#111111" />

  
  <rect x="260" y="300" width="8" height="8" fill="#ffff00" opacity="0.7" />
  <rect x="280" y="260" width="8" height="8" fill="#ffff00" opacity="0.7" />
  <rect x="308" y="228" width="8" height="8" fill="#ffff00" opacity="0.7" />
  <rect x="344" y="204" width="8" height="8" fill="#ffff00" opacity="0.6" />
  <rect x="384" y="192" width="8" height="8" fill="#ffff00" opacity="0.5" />

  
  <rect x="224" y="380" width="24" height="8" fill="#ffff44" opacity="0.5" />
  <rect x="216" y="396" width="32" height="8" fill="#ffff44" opacity="0.4" />
  <rect x="208" y="412" width="40" height="8" fill="#ffff44" opacity="0.3" />

  
  <rect x="216" y="340" width="16" height="16" fill="#ffffff" />
  <rect x="220" y="340" width="8" height="4" fill="#dddddd" />

  
  <rect x="1100" y="300" width="8" height="296" fill="#888888" />
  
  <rect x="1108" y="300" width="96" height="64" fill="#003087" />
  <rect x="1108" y="300" width="96" height="16" fill="#cc0000" />
  <rect x="1108" y="332" width="96" height="16" fill="#cc0000" />
  
  <rect x="1116" y="308" width="8" height="8" fill="#ffffff" />
  <rect x="1128" y="308" width="8" height="8" fill="#ffffff" />
  <rect x="1140" y="308" width="16" height="8" fill="#ffffff" />
  <rect x="1160" y="308" width="8" height="8" fill="#ffffff" />
  <rect x="1172" y="308" width="8" height="8" fill="#ffffff" />

  
  <rect x="1084" y="592" width="40" height="8" fill="#222222" />
  <rect x="1080" y="596" width="48" height="4" fill="#111111" />

  
  <rect x="850" y="120" width="280" height="180" fill="#0a0a0a" stroke="#00ff44" stroke-width="4" />
  <rect x="854" y="124" width="272" height="172" fill="#001100" />
  
  <rect x="862" y="132" width="16" height="8" fill="#ffff00" />
  <rect x="882" y="132" width="8" height="8" fill="#ffff00" />
  <rect x="894" y="132" width="16" height="8" fill="#ffff00" />
  <rect x="914" y="132" width="8" height="8" fill="#ffff00" />
  <rect x="926" y="132" width="8" height="8" fill="#ffff00" />
  <rect x="938" y="132" width="16" height="8" fill="#ffff00" />
  <rect x="958" y="132" width="8" height="8" fill="#ffff00" />
  <rect x="970" y="132" width="16" height="8" fill="#ffff00" />
  <rect x="990" y="132" width="8" height="8" fill="#ffff00" />
  <rect x="1002" y="132" width="16" height="8" fill="#ffff00" />
  
  <rect x="862" y="152" width="48" height="8" fill="#00ff44" />
  <rect x="1030" y="152" width="24" height="8" fill="#00ff44" />
  
  <rect x="862" y="168" width="8" height="8" fill="#ffffff" />
  <rect x="874" y="168" width="8" height="8" fill="#ffffff" />
  <rect x="886" y="168" width="8" height="8" fill="#ffffff" />
  <rect x="898" y="168" width="8" height="8" fill="#ffffff" />
  <rect x="910" y="168" width="8" height="8" fill="#ffffff" />
  <rect x="1020" y="168" width="32" height="8" fill="#00ff44" />
  
  <rect x="862" y="188" width="8" height="8" fill="#aaaaaa" />
  <rect x="874" y="188" width="8" height="8" fill="#aaaaaa" />
  <rect x="886" y="188" width="8" height="8" fill="#aaaaaa" />
  <rect x="898" y="188" width="8" height="8" fill="#aaaaaa" />
  <rect x="910" y="188" width="8" height="8" fill="#aaaaaa" />
  <rect x="922" y="188" width="8" height="8" fill="#aaaaaa" />
  <rect x="1020" y="188" width="32" height="8" fill="#aaaaaa" />
  
  <rect x="862" y="204" width="256" height="4" fill="#00ff44" opacity="0.5" />
  
  <rect x="862" y="216" width="16" height="8" fill="#ff4444" />
  <rect x="882" y="216" width="8" height="8" fill="#ff4444" />
  <rect x="894" y="216" width="16" height="8" fill="#ff4444" />
  <rect x="914" y="216" width="8" height="8" fill="#ff4444" />
  <rect x="926" y="216" width="8" height="8" fill="#ff4444" />
  <rect x="938" y="216" width="16" height="8" fill="#ff4444" />
  <rect x="958" y="216" width="8" height="8" fill="#ff4444" />
  <rect x="970" y="216" width="16" height="8" fill="#ff4444" />
  <rect x="1010" y="216" width="40" height="8" fill="#ff4444" />
  
  <rect x="862" y="240" width="256" height="40" fill="#cc8800" opacity="0.3" />
  <rect x="870" y="248" width="24" height="8" fill="#ffcc00" />
  <rect x="898" y="248" width="8" height="8" fill="#ffcc00" />
  <rect x="910" y="248" width="16" height="8" fill="#ffcc00" />
  <rect x="930" y="248" width="8" height="8" fill="#ffcc00" />
  <rect x="942" y="248" width="8" height="8" fill="#ffcc00" />
  <rect x="954" y="248" width="16" height="8" fill="#ffcc00" />
  <rect x="974" y="248" width="8" height="8" fill="#ffcc00" />
  <rect x="986" y="248" width="8" height="8" fill="#ffcc00" />
  <rect x="998" y="248" width="16" height="8" fill="#ffcc00" />
  <rect x="1020" y="248" width="16" height="8" fill="#ffcc00" />
  <rect x="1040" y="248" width="48" height="8" fill="#ffcc00" />

  
  <rect x="1240" y="400" width="80" height="80" fill="#cc9900" />
  <rect x="1232" y="408" width="16" height="48" fill="#cc9900" />
  <rect x="1312" y="408" width="16" height="48" fill="#cc9900" />
  <rect x="1256" y="480" width="56" height="16" fill="#cc9900" />
  <rect x="1248" y="496" width="72" height="16" fill="#aa7700" />
  <rect x="1264" y="512" width="40" height="48" fill="#cc9900" />
  <rect x="1240" y="556" width="88" height="16" fill="#aa7700" />
  
  <rect x="1264" y="412" width="16" height="32" fill="#ffee66" />
  <rect x="1280" y="412" width="8" height="16" fill="#ffee66" />
  
  <rect x="1272" y="432" width="8" height="8" fill="#ffffff" />
  <rect x="1264" y="440" width="24" height="8" fill="#ffffff" />
  <rect x="1272" y="448" width="8" height="8" fill="#ffffff" />

  
  <rect x="680" y="420" width="120" height="160" fill="#001122" stroke="#0088ff" stroke-width="4" />
  
  <rect x="700" y="428" width="32" height="100" fill="#8899aa" />
  <rect x="688" y="428" width="56" height="20" fill="#8899aa" />
  <rect x="688" y="508" width="56" height="20" fill="#8899aa" />
  <rect x="744" y="448" width="32" height="80" fill="#778899" />
  <rect x="732" y="448" width="20" height="80" fill="#667788" />
  
  <rect x="700" y="488" width="80" height="8" fill="#ff2222" />
  <rect x="720" y="468" width="8" height="48" fill="#ff2222" />
  
  <rect x="686" y="568" width="8" height="8" fill="#ff4444" />
  <rect x="698" y="568" width="8" height="8" fill="#ff4444" />
  <rect x="710" y="568" width="8" height="8" fill="#ff4444" />
  <rect x="722" y="568" width="16" height="8" fill="#ff4444" />
  <rect x="742" y="568" width="8" height="8" fill="#ff4444" />
  <rect x="754" y="568" width="8" height="8" fill="#ff4444" />
  <rect x="766" y="568" width="8" height="8" fill="#ff4444" />
  <rect x="778" y="568" width="8" height="8" fill="#ff4444" />

  
  
  <rect x="120" y="460" width="16" height="120" fill="#4a3a00" />
  <rect x="104" y="380" width="48" height="96" fill="#006600" />
  <rect x="112" y="356" width="32" height="32" fill="#008800" />
  <rect x="120" y="340" width="16" height="24" fill="#00aa00" />
  
  <rect x="1360" y="480" width="16" height="100" fill="#4a3a00" />
  <rect x="1344" y="400" width="48" height="88" fill="#006600" />
  <rect x="1352" y="376" width="32" height="32" fill="#008800" />
  <rect x="1360" y="360" width="16" height="24" fill="#00aa00" />
  
  <rect x="200" y="500" width="12" height="80" fill="#4a3a00" />
  <rect x="188" y="440" width="36" height="68" fill="#005500" />
  <rect x="194" y="420" width="24" height="28" fill="#007700" />
  
  <rect x="1300" y="500" width="12" height="80" fill="#4a3a00" />
  <rect x="1288" y="440" width="36" height="68" fill="#005500" />
  <rect x="1294" y="420" width="24" height="28" fill="#007700" />

  
  
  <rect x="0" y="650" width="1536" height="180" fill="#000000" opacity="0.75" />
  <rect x="0" y="650" width="1536" height="6" fill="#ffcc00" />
  <rect x="0" y="824" width="1536" height="6" fill="#ffcc00" />

  
  <text x="768" y="730" font-family="'Courier New', Courier, monospace" font-size="72" font-weight="bold" text-anchor="middle" fill="#ffcc00" letter-spacing="4" filter="url(#crtglow)">TIGER WOODS WINS</text>
  <text x="768" y="810" font-family="'Courier New', Courier, monospace" font-size="60" font-weight="bold" text-anchor="middle" fill="#ffffff" letter-spacing="3" filter="url(#crtglow)">THE US OPEN // ACL TORN</text>

  
  <rect x="0" y="870" width="1536" height="80" fill="#000000" opacity="0.6" />
  <text x="768" y="922" font-family="'Courier New', Courier, monospace" font-size="36" text-anchor="middle" fill="#00ff44" letter-spacing="6" filter="url(#crtglow)">TORREY PINES · SAN DIEGO · JUNE 2008 · 14TH MAJOR</text>

  
  <rect x="40" y="120" width="260" height="100" fill="#000000" stroke="#ffcc00" stroke-width="4" />
  <rect x="44" y="124" width="252" height="92" fill="#110800" />
  <text x="170" y="168" font-family="'Courier New', Courier, monospace" font-size="24" text-anchor="middle" fill="#ffcc00">MAJORS WON</text>
  <text x="170" y="204" font-family="'Courier New', Courier, monospace" font-size="40" font-weight="bold" text-anchor="middle" fill="#ff4444" filter="url(#crtglow)">14</text>

  
  <text x="768" y="980" font-family="'Courier New', Courier, monospace" font-size="28" text-anchor="middle" fill="#ffcc00" opacity="0.8" letter-spacing="8">★ PLAYER 1 WINS ★</text>

  
  <radialGradient id="vignette" cx="50%" cy="50%" r="70%">
    <stop offset="60%" stop-color="#000000" stop-opacity="0" />
    <stop offset="100%" stop-color="#000000" stop-opacity="0.6" />
  </radialGradient>
  <rect width="1536" height="1024" fill="url(#vignette)" />

  
  <rect x="0" y="0" width="32" height="32" fill="#ffcc00" />
  <rect x="8" y="8" width="16" height="16" fill="#000000" />
  <rect x="1504" y="0" width="32" height="32" fill="#ffcc00" />
  <rect x="1512" y="8" width="16" height="16" fill="#000000" />
  <rect x="0" y="992" width="32" height="32" fill="#ffcc00" />
  <rect x="8" y="1000" width="16" height="16" fill="#000000" />
  <rect x="1504" y="992" width="32" height="32" fill="#ffcc00" />
  <rect x="1512" y="1000" width="16" height="16" fill="#000000" />
</svg>